<?xml version="1.0" encoding="utf-8"?>
<!-- Generator: Adobe Illustrator 27.5.0, SVG Export Plug-In . SVG Version: 6.00 Build 0)  -->
<svg version="1.1" xmlns="http://www.w3.org/2000/svg" xmlns:xlink="http://www.w3.org/1999/xlink" x="0px" y="0px"
	 viewBox="0 0 750 500" style="enable-background:new 0 0 750 500;" xml:space="preserve">
<g id="Background_Complete">
	<g>
		<path style="fill:#E0E0E0;" d="M291.329,444.914c-5.242-12.015-14.973-22.01-26.844-27.571
			c-11.871-5.561-38.365-2.978-38.365-2.978l-69.618-0.143c1.424,6.115,5.961,21.816,9.35,27.102
			c3.389,5.286,8.395,9.739,14.436,11.448c7.392,2.092,15.223-0.074,22.888-0.568c13.493-0.87,26.696,3.486,39.688,7.231
			c12.992,3.745,26.773,6.937,39.914,3.753c3.73-0.904,7.639-2.568,9.451-5.951C294.243,453.476,293.036,448.825,291.329,444.914z"
			/>
	</g>
	<g>
		<g>
			<g>
				<g>
					<path style="fill:#EBEBEB;" d="M77.56,198.106c0,0-7.919-0.57-7.19,17.194c0.729,17.764,2.541,27.226,2.541,27.226
						s-0.233,3.939-3.283,3.166c-3.051-0.773-8.789-4.606-11.623-1.741c-2.939,2.972-1.894,7.53,2.005,12.899
						c3.899,5.369,12.009,17.445,12.739,18.539c0.716,1.075,1.003,3.09-1.159,2.896c-2.162-0.194-16.758-5.141-18.691,1.926
						c-1.933,7.066,11.387,20.238,12.815,21.706c1.428,1.468,1.505,2.395,0.926,3.283c-0.58,0.888-5.329-1.237-9.538-2.474
						c-4.209-1.237-9.306-1.933-10.08,2.237c-0.774,4.17,5.093,16.375,27.063,29.202l10.569,5.277l10.004-6.381
						c20.576-14.96,25.193-27.69,24.006-31.762c-1.187-4.072-6.189-2.869-10.253-1.218c-4.064,1.652-8.577,4.241-9.242,3.416
						c-0.665-0.826-0.681-1.755,0.593-3.359c1.275-1.603,13.21-16.042,10.58-22.879c-2.63-6.838-16.658-0.455-18.79-0.046
						c-2.132,0.409-2.048-1.625-1.443-2.766c0.616-1.162,7.478-13.989,10.82-19.721c3.342-5.732,3.926-10.372,0.704-13.034
						c-3.107-2.568-8.433,1.82-11.391,2.895c-2.958,1.074-3.583-2.821-3.583-2.821s0.857-9.596-0.195-27.343
						c-1.052-17.748-9.064-16.315-9.064-16.315"/>
				</g>
			</g>
			<g>
				<g>
					<g>
						<path style="fill:#E0E0E0;" d="M78.186,214.016c0,0,0.021,0.125,0.043,0.371c0.02,0.263,0.048,0.625,0.084,1.09
							c0.066,0.978,0.162,2.388,0.285,4.195c0.243,3.643,0.554,8.918,0.914,15.436c0.725,13.037,1.571,31.055,2.441,50.957
							c0.869,19.909,1.671,37.928,2.323,50.968c0.331,6.506,0.599,11.777,0.785,15.441c0.09,1.809,0.16,3.22,0.209,4.199
							c0.019,0.466,0.034,0.829,0.044,1.093c0.008,0.246,0.001,0.373,0.001,0.373s-0.021-0.125-0.043-0.371
							c-0.02-0.263-0.048-0.625-0.084-1.09c-0.066-0.978-0.162-2.388-0.285-4.194c-0.243-3.643-0.554-8.917-0.914-15.435
							c-0.725-13.037-1.571-31.057-2.441-50.965c-0.869-19.902-1.671-37.92-2.322-50.959c-0.331-6.506-0.599-11.777-0.786-15.442
							c-0.09-1.809-0.16-3.22-0.209-4.199c-0.019-0.466-0.034-0.829-0.044-1.093C78.179,214.143,78.186,214.016,78.186,214.016z"/>
					</g>
				</g>
			</g>
			<g>
				<g>
					<g>
						<path style="fill:#E0E0E0;" d="M65.817,249.636c0.02-0.02,0.253,0.176,0.657,0.547c0.407,0.369,0.978,0.922,1.677,1.611
							c1.395,1.382,3.271,3.341,5.3,5.541c1.986,2.172,3.781,4.136,5.169,5.656c0.617,0.669,1.142,1.238,1.573,1.706
							c0.373,0.402,0.57,0.634,0.551,0.654c-0.019,0.02-0.254-0.174-0.662-0.542c-0.406-0.371-0.977-0.923-1.669-1.62
							c-1.382-1.396-3.231-3.378-5.26-5.579c-2-2.157-3.808-4.107-5.208-5.616c-0.621-0.666-1.149-1.233-1.583-1.699
							C65.993,249.889,65.797,249.656,65.817,249.636z"/>
					</g>
				</g>
			</g>
			<g>
				<g>
					<g>
						<path style="fill:#E0E0E0;" d="M81.792,265.002c-0.08-0.079,3.786-4.126,8.632-9.04c4.848-4.915,8.842-8.835,8.921-8.757
							c0.079,0.078-3.785,4.125-8.633,9.041C85.866,261.16,81.872,265.081,81.792,265.002z"/>
					</g>
				</g>
			</g>
			<g>
				<g>
					<g>
						<path style="fill:#E0E0E0;" d="M81.749,295.63c-0.013-0.025,0.25-0.191,0.737-0.469c0.564-0.317,1.255-0.704,2.067-1.16
							c1.744-0.98,4.149-2.342,6.748-3.94c2.604-1.592,4.911-3.114,6.573-4.227c0.775-0.517,1.434-0.956,1.972-1.315
							c0.468-0.308,0.735-0.467,0.751-0.445c0.016,0.023-0.219,0.225-0.659,0.572c-0.441,0.347-1.088,0.836-1.901,1.423
							c-1.624,1.176-3.913,2.74-6.525,4.337c-2.607,1.603-5.042,2.929-6.824,3.847c-0.893,0.455-1.62,0.815-2.13,1.048
							C82.049,295.537,81.762,295.655,81.749,295.63z"/>
					</g>
				</g>
			</g>
			<g>
				<g>
					<g>
						<path style="fill:#E0E0E0;" d="M64.24,284.912c0.014-0.024,0.274,0.099,0.731,0.343c0.457,0.244,1.112,0.608,1.916,1.065
							c1.609,0.914,3.818,2.201,6.244,3.644c2.427,1.443,4.613,2.77,6.184,3.747c0.786,0.489,1.418,0.89,1.85,1.175
							c0.432,0.285,0.665,0.454,0.65,0.478c-0.014,0.024-0.274-0.099-0.731-0.343c-0.457-0.244-1.112-0.608-1.916-1.065
							c-1.609-0.914-3.818-2.202-6.245-3.645c-2.426-1.443-4.612-2.769-6.183-3.746c-0.786-0.489-1.418-0.89-1.851-1.175
							C64.457,285.105,64.225,284.936,64.24,284.912z"/>
					</g>
				</g>
			</g>
			<g>
				<g>
					<g>
						<path style="fill:#E0E0E0;" d="M60.766,311.946c0.014-0.024,0.344,0.137,0.93,0.45c0.651,0.359,1.476,0.814,2.46,1.357
							c2.068,1.161,4.911,2.789,8.039,4.609c3.129,1.82,5.949,3.488,7.98,4.712c0.958,0.587,1.761,1.079,2.395,1.468
							c0.561,0.354,0.864,0.562,0.85,0.586c-0.014,0.024-0.344-0.137-0.93-0.45c-0.651-0.359-1.476-0.814-2.46-1.357
							c-2.068-1.161-4.911-2.789-8.04-4.609c-3.127-1.82-5.948-3.487-7.979-4.711c-0.958-0.587-1.761-1.079-2.395-1.468
							C61.056,312.177,60.752,311.97,60.766,311.946z"/>
					</g>
				</g>
			</g>
			<g>
				<g>
					<g>
						<path style="fill:#E0E0E0;" d="M82.967,324.659c-0.014-0.024,0.314-0.242,0.919-0.616c0.673-0.409,1.535-0.935,2.569-1.564
							c2.168-1.321,5.157-3.156,8.4-5.272c3.248-2.112,6.137-4.099,8.221-5.55c0.994-0.691,1.824-1.267,2.47-1.716
							c0.586-0.402,0.917-0.614,0.934-0.592c0.017,0.022-0.284,0.277-0.841,0.719c-0.557,0.442-1.374,1.067-2.397,1.822
							c-2.043,1.513-4.913,3.541-8.167,5.657c-3.249,2.12-6.268,3.919-8.476,5.179c-1.106,0.627-2.006,1.125-2.636,1.454
							C83.335,324.512,82.981,324.683,82.967,324.659z"/>
					</g>
				</g>
			</g>
		</g>
		<g>
			<g>
				<g>
					<g>
						<polygon style="fill:#E0E0E0;" points="98.852,342.899 69.612,342.899 79.156,415.141 89.309,415.141 						"/>
					</g>
				</g>
			</g>
			<g>
				<g>
					<g>
						<g>
							<path style="fill:#F5F5F5;" d="M71.129,351.779c-0.011,0.007,0.032,0.102,0.156,0.257c0.125,0.153,0.354,0.353,0.705,0.505
								c0.693,0.302,1.911,0.326,3.088-0.379c1.181-0.651,2.209-1.931,3.791-2.496c1.569-0.599,3.513-0.492,5.377,0.107
								c1.885,0.583,3.523,1.537,5.007,2.426c1.487,0.885,2.849,1.674,4.071,2.185c1.213,0.53,2.271,0.774,3.003,0.868
								c0.367,0.049,0.653,0.063,0.849,0.057c0.194,0,0.296-0.008,0.297-0.025c0.017-0.095-1.655-0.081-4.011-1.209
								c-1.181-0.54-2.507-1.347-3.982-2.253c-1.468-0.906-3.145-1.903-5.092-2.505c-1.924-0.619-3.992-0.731-5.675-0.062
								c-0.841,0.32-1.547,0.823-2.136,1.321c-0.597,0.494-1.132,0.959-1.674,1.297c-1.069,0.691-2.193,0.72-2.848,0.494
								C71.383,352.134,71.167,351.739,71.129,351.779z"/>
						</g>
					</g>
				</g>
			</g>
			<g>
				<g>
					<g>
						<g>
							<path style="fill:#F5F5F5;" d="M72.196,365.085c0.039,0.024,0.232-0.298,0.689-0.775c0.465-0.464,1.228-1.071,2.335-1.481
								c1.097-0.421,2.507-0.671,4.066-0.612c1.566,0.054,3.273,0.398,5.088,0.693c1.812,0.305,3.607,0.441,5.21,0.216
								c1.603-0.206,2.995-0.667,4.099-1.17c1.107-0.505,1.927-1.058,2.465-1.465c0.54-0.409,0.797-0.684,0.781-0.703
								c-0.055-0.079-1.184,0.932-3.381,1.859c-1.096,0.453-2.46,0.868-4.017,1.043c-1.557,0.193-3.281,0.051-5.082-0.251
								c-1.8-0.292-3.534-0.63-5.15-0.661c-1.618-0.036-3.077,0.258-4.206,0.739c-1.139,0.469-1.909,1.151-2.346,1.669
								c-0.211,0.27-0.364,0.486-0.442,0.648C72.22,364.991,72.182,365.077,72.196,365.085z"/>
						</g>
					</g>
				</g>
			</g>
			<g>
				<g>
					<g>
						<g>
							<path style="fill:#F5F5F5;" d="M95.54,372.208c0.011-0.022-0.259-0.204-0.806-0.418c-0.544-0.215-1.375-0.436-2.423-0.52
								c-1.047-0.083-2.302-0.016-3.664,0.209c-1.364,0.221-2.825,0.598-4.36,0.924c-1.534,0.323-3.014,0.541-4.354,0.492
								c-1.34-0.047-2.532-0.34-3.457-0.748c-1.882-0.826-2.552-2.028-2.622-1.952c-0.018,0.011,0.115,0.312,0.495,0.763
								c0.377,0.45,1.035,1.025,1.985,1.495c0.949,0.467,2.185,0.808,3.58,0.881c1.398,0.076,2.92-0.137,4.472-0.464
								c1.552-0.33,3.003-0.717,4.337-0.957c1.333-0.245,2.551-0.344,3.57-0.306C94.343,371.675,95.51,372.295,95.54,372.208z"/>
						</g>
					</g>
				</g>
			</g>
			<g>
				<g>
					<g>
						<g>
							<path style="fill:#F5F5F5;" d="M74.78,382.227c0.014,0.077,1.044-0.651,2.839-0.286c0.88,0.159,1.864,0.605,2.97,1.107
								c1.102,0.514,2.43,0.953,3.855,1.063c2.873,0.276,5.428-0.652,6.995-1.621c0.803-0.476,1.362-0.988,1.741-1.339
								c0.356-0.379,0.538-0.597,0.515-0.619c-0.064-0.07-0.832,0.794-2.425,1.666c-1.565,0.867-4.032,1.703-6.783,1.438
								c-2.768-0.158-4.893-1.809-6.812-2.027c-0.936-0.14-1.718-0.006-2.205,0.191C74.975,381.992,74.766,382.21,74.78,382.227z"/>
						</g>
					</g>
				</g>
			</g>
			<g>
				<g>
					<g>
						<g>
							<path style="fill:#F5F5F5;" d="M76.409,396.093c0,0.055,0.981,0.048,2.438-0.484c1.47-0.491,3.289-1.618,5.414-2.462
								c1.066-0.406,2.135-0.656,3.107-0.651c0.973,0.005,1.841,0.242,2.498,0.57c1.343,0.669,1.732,1.619,1.806,1.559
								c0.021-0.009-0.038-0.248-0.277-0.616c-0.236-0.367-0.684-0.846-1.37-1.24c-0.684-0.391-1.604-0.682-2.65-0.712
								c-1.049-0.031-2.179,0.224-3.283,0.645c-2.202,0.878-3.963,2.037-5.367,2.594C77.337,395.893,76.398,396.016,76.409,396.093z
								"/>
						</g>
					</g>
				</g>
			</g>
			<g>
				<g>
					<g>
						<g>
							<path style="fill:#F5F5F5;" d="M77.842,402.544c-0.016,0.06,0.685,0.312,1.851,0.601c1.165,0.29,2.801,0.599,4.628,0.78
								c1.828,0.178,3.492,0.193,4.692,0.136c1.201-0.056,1.937-0.167,1.933-0.229c-0.007-0.144-2.963-0.018-6.578-0.382
								C80.753,403.104,77.878,402.404,77.842,402.544z"/>
						</g>
					</g>
				</g>
			</g>
		</g>
	</g>
	<g>
		<g>
			
				<rect x="539.548" y="230.192" transform="matrix(0.9749 -0.2228 0.2228 0.9749 -43.4255 136.9214)" style="fill:#F5F5F5;" width="91.214" height="61.482"/>
		</g>
		<g>
			<g>
				<g>
					<path style="fill:#E0E0E0;" d="M623.216,221.46c0.023,0.017-0.2,0.356-0.646,0.987c-0.499,0.69-1.157,1.599-1.98,2.735
						c-1.803,2.427-4.32,5.815-7.411,9.976c-6.372,8.444-15.095,20.002-24.756,32.803l-0.204,0.27l-0.306-0.148
						c-0.233-0.112-0.486-0.234-0.739-0.356c-14.599-7.088-27.809-13.503-37.468-18.193c-4.716-2.334-8.561-4.236-11.313-5.599
						c-1.271-0.648-2.287-1.167-3.058-1.56c-0.695-0.365-1.054-0.569-1.042-0.595s0.396,0.128,1.114,0.444
						c0.787,0.358,1.826,0.83,3.125,1.42c2.78,1.304,6.663,3.126,11.427,5.361c9.686,4.634,22.934,10.971,37.574,17.974
						c0.253,0.122,0.506,0.244,0.739,0.356l-0.509,0.122c9.738-12.743,18.529-24.249,24.952-32.654
						c3.178-4.094,5.766-7.429,7.62-9.817c0.874-1.097,1.573-1.976,2.103-2.642C622.927,221.748,623.194,221.442,623.216,221.46z"/>
				</g>
			</g>
		</g>
		<g>
			<g>
				<path style="fill:#E0E0E0;" d="M547.992,301.717c-0.203-0.105,4.606-9.849,10.74-21.761
					c6.137-11.916,11.275-21.489,11.478-21.384c0.203,0.105-4.605,9.847-10.742,21.763
					C553.334,292.248,548.195,301.822,547.992,301.717z"/>
			</g>
		</g>
		<g>
			<g>
				<path style="fill:#E0E0E0;" d="M599.597,251.068c0.144-0.177,8.616,6.468,18.919,14.842
					c10.307,8.377,18.542,15.309,18.398,15.486c-0.144,0.177-8.614-6.467-18.921-14.844
					C607.69,258.179,599.453,251.245,599.597,251.068z"/>
			</g>
		</g>
	</g>
	<g>
		<g>
			
				<rect x="230.666" y="54.694" transform="matrix(0.225 -0.9744 0.9744 0.225 113.3177 305.6377)" style="fill:#F5F5F5;" width="36.25" height="53.78"/>
		</g>
		<g>
			<g>
				<g>
					<path style="fill:#E0E0E0;" d="M279.139,70.438c0.008,0.015-0.198,0.137-0.596,0.357c-0.442,0.237-1.025,0.55-1.754,0.941
						c-1.581,0.823-3.788,1.973-6.498,3.385c-5.553,2.84-13.154,6.726-21.574,11.032l-0.178,0.091l-0.124-0.157
						c-0.095-0.12-0.198-0.249-0.3-0.379c-5.92-7.517-11.278-14.319-15.195-19.292c-1.901-2.452-3.451-4.45-4.561-5.881
						c-0.507-0.671-0.913-1.208-1.221-1.614c-0.275-0.372-0.413-0.573-0.4-0.583c0.013-0.011,0.177,0.17,0.477,0.522
						c0.326,0.392,0.755,0.91,1.292,1.557c1.139,1.407,2.73,3.373,4.682,5.785c3.946,4.951,9.343,11.721,15.307,19.204
						c0.103,0.13,0.206,0.259,0.3,0.379l-0.302-0.066c8.445-4.255,16.069-8.096,21.639-10.902c2.739-1.354,4.97-2.457,6.568-3.247
						c0.746-0.357,1.343-0.643,1.795-0.86C278.911,70.517,279.132,70.423,279.139,70.438z"/>
				</g>
			</g>
		</g>
		<g>
			<g>
				<path style="fill:#E0E0E0;" d="M218.582,93.657c-0.081-0.108,4.978-4.04,11.297-8.78c6.322-4.743,11.51-8.498,11.591-8.39
					c0.081,0.108-4.977,4.039-11.298,8.781C223.852,90.008,218.662,93.765,218.582,93.657z"/>
			</g>
		</g>
		<g>
			<g>
				<path style="fill:#E0E0E0;" d="M258.991,80.067c0.122-0.057,2.906,5.648,6.217,12.742c3.312,7.096,5.897,12.892,5.775,12.949
					c-0.122,0.057-2.905-5.647-6.218-12.743C261.454,85.922,258.868,80.124,258.991,80.067z"/>
			</g>
		</g>
	</g>
	<g>
		<g>
			
				<rect x="524.39" y="73.774" transform="matrix(0.9188 -0.3948 0.3948 0.9188 9.6226 222.4007)" style="fill:#F5F5F5;" width="41.673" height="28.089"/>
		</g>
		<g>
			<g>
				<g>
					<path style="fill:#E0E0E0;" d="M559.08,66.946c0.012,0.006-0.061,0.177-0.209,0.497c-0.168,0.351-0.389,0.814-0.665,1.392
						c-0.61,1.239-1.463,2.969-2.509,5.093c-2.168,4.319-5.137,10.231-8.424,16.78l-0.069,0.138l-0.15-0.041
						c-0.114-0.031-0.238-0.065-0.362-0.099c-7.144-1.983-13.609-3.778-18.336-5.091c-2.312-0.661-4.196-1.199-5.545-1.585
						c-0.624-0.187-1.124-0.336-1.503-0.449c-0.342-0.107-0.521-0.169-0.517-0.182c0.004-0.012,0.188,0.025,0.537,0.108
						c0.383,0.096,0.889,0.222,1.521,0.381c1.357,0.357,3.252,0.856,5.577,1.468c4.734,1.285,11.21,3.042,18.365,4.984
						c0.124,0.034,0.247,0.068,0.362,0.099l-0.219,0.097c3.327-6.528,6.33-12.423,8.525-16.729c1.091-2.102,1.979-3.813,2.616-5.039
						c0.302-0.565,0.544-1.017,0.728-1.36C558.974,67.1,559.069,66.94,559.08,66.946z"/>
				</g>
			</g>
		</g>
		<g>
			<g>
				<path style="fill:#E0E0E0;" d="M531.883,109.206c-0.1-0.03,1.259-4.805,3.035-10.663c1.777-5.86,3.297-10.585,3.397-10.555
					c0.1,0.03-1.259,4.804-3.035,10.664C533.505,104.511,531.983,109.236,531.883,109.206z"/>
			</g>
		</g>
		<g>
			<g>
				<path style="fill:#E0E0E0;" d="M550.904,82.196c0.05-0.092,4.404,2.198,9.724,5.112c5.321,2.916,9.593,5.353,9.543,5.445
					c-0.05,0.091-4.403-2.197-9.725-5.113C555.126,84.725,550.854,82.288,550.904,82.196z"/>
			</g>
		</g>
	</g>
</g>
<g id="Background_Simple" style="display:none;">
	<path style="display:inline;fill:#E0E0E0;" d="M191.737,414.91h312.786c20.337-11.721,38.808-26.494,54.953-44.715
		c50.743-57.267,69.393-154.094,43.347-225.902l-2.402-5.175c-19.285-41.554-59.715-70.289-105.891-73.659
		c-6.489-0.474-13.014-0.457-19.508,0.078c-43.297,3.569-83.867,30.085-104.012,67.979c-11.848,22.286-17.682,48.912-36.969,65.379
		c-25.102,21.431-62.736,17.545-95.617,12.461c-32.881-5.085-70.552-8.879-95.558,12.661c-15.661,13.49-22.714,34.556-24.12,55.043
		C115.077,332.505,146.705,384.677,191.737,414.91z"/>
</g>
<g id="Plant">
	<g>
		<g>
			<g>
				<g>
					<path style="fill:#e7a9f2;" d="M609.52,327.756c-4.08-2.562-8.755-4.171-13.547-4.663c-2.214-0.227-4.632-0.163-6.408,1.178
						c-0.377,0.285-0.744,0.706-0.66,1.17c0.062,0.342,0.351,0.59,0.627,0.801C595.043,330.447,603.381,330.978,609.52,327.756"/>
				</g>
			</g>
			<g>
				<g>
					<path style="fill:#e7a9f2;" d="M609.172,327.372c-3.067-2.393-6.152-4.803-8.75-7.699c-2.598-2.895-4.71-6.333-5.486-10.145
						c-0.235-1.156-0.308-2.477,0.434-3.395C602.345,311.581,607.824,318.626,609.172,327.372"/>
				</g>
			</g>
			<g>
				<g>
					<path style="fill:#e7a9f2;" d="M609.448,327.703c-0.525-3.816-0.714-7.737,0.162-11.488c0.876-3.751,2.917-7.34,6.119-9.48
						c1.206,2.817,0.687,6.063-0.162,9.007c-1.312,4.55-3.37,8.883-6.068,12.775"/>
				</g>
			</g>
			<g>
				<g>
					<path style="fill:#e7a9f2;" d="M616.285,339.955c-4.15,0.504-7.765,2.692-10.864,5.499c-3.099,2.806-5.302,6.588-6.215,10.668
						c4.071-0.251,7.525-3.122,10.03-6.342c2.505-3.219,4.24-6.751,6.992-9.762"/>
				</g>
			</g>
			<g>
				<g>
					<path style="fill:#e7a9f2;" d="M617.77,341.914c-3.343-8.235-2.132-18.158,3.094-25.347
						C623.229,324.979,622.361,334.48,617.77,341.914"/>
				</g>
			</g>
			<g>
				<g>
					<path style="fill:#e7a9f2;" d="M626.804,352.671c-3.767-0.234-7.596,0.664-10.867,2.546c-3.271,1.883-5.97,4.744-7.66,8.118
						c-0.23,0.459-0.432,1.042-0.125,1.453c0.267,0.357,0.784,0.39,1.229,0.361c3.651-0.236,6.887-2.433,9.558-4.935
						c2.67-2.501,4.996-5.391,7.947-7.555"/>
				</g>
			</g>
			<g>
				<g>
					<path style="fill:#e7a9f2;" d="M626.516,352.086c-1.943-6.217-2.064-12.992-0.344-19.275c0.679-2.481,1.819-5.093,4.113-6.256
						c0.196-0.099,0.424-0.188,0.629-0.111c0.195,0.073,0.308,0.273,0.398,0.461c0.816,1.705,1.054,3.641,0.97,5.53
						s-0.476,3.748-0.867,5.598c-0.722,3.421-1.107,7.098-2.983,10.049c-0.445,0.7-0.838,1.457-1.193,2.207
						c-0.355,0.75-0.358,1.014-0.683,1.611"/>
				</g>
			</g>
			<g>
				<g>
					<path style="fill:#e7a9f2;" d="M650.429,355.648c-1.772-6.739,0.109-14.909,4.356-20.434c0.313-0.407,0.727-0.843,1.238-0.795
						c0.782,0.072,0.985,1.114,0.95,1.899C656.666,343.205,654.369,349.991,650.429,355.648"/>
				</g>
			</g>
			<g>
				<g>
					<path style="fill:#e7a9f2;" d="M652.586,357.122c8.188,2.131,17.581,0.06,24.391-4.961c-4.036-2.045-8.793-2.629-13.204-1.621
						C659.362,351.55,655.331,353.526,652.586,357.122"/>
				</g>
			</g>
			<g>
				<g>
					<path style="fill:#e7a9f2;" d="M654.404,352.635c4.586-7.476,13.377-12.356,22.136-12.8c-1.009,3.563-3.937,6.332-7.24,8.005
						c-3.303,1.673-6.991,2.402-10.626,3.108C657.26,351.222,655.32,351.524,654.404,352.635"/>
				</g>
			</g>
			<g>
				<g>
					<path style="fill:#e7a9f2;" d="M650.885,330.861c1.242-4.254,2.49-8.546,2.831-12.964c0.341-4.419-0.289-9.031-2.582-12.824
						c-4.283,8.289-4.717,17.973-0.378,26.232"/>
				</g>
			</g>
			<g>
				<g>
					<path style="fill:#e7a9f2;" d="M665.306,323.572c5.009-9.104,15.229-16.376,25.57-17.395
						C686.887,316.109,676.008,323.786,665.306,323.572"/>
				</g>
			</g>
			<g>
				<g>
					<path style="fill:#e7a9f2;" d="M662.155,325.356c7.471,1.138,13.835,5.909,20.817,8.802c1.493,0.619,3.104,1.111,4.706,0.901
						c1.602-0.21,3.183-1.285,3.543-2.861c0.298-1.308-0.297-2.697-1.236-3.656s-2.179-1.558-3.418-2.074
						c-7.604-3.166-15.758-3.245-23.768-1.325"/>
				</g>
			</g>
			<g>
				<g>
					<path style="fill:#e7a9f2;" d="M657.832,330.596c1.691,0.484,2.269,1.36,3.608,2.501c4.544,3.87,9.993,6.669,15.785,8.109
						c0.603,0.15,1.394,0.21,1.693-0.335c0.261-0.476-0.069-1.052-0.408-1.476c-2.427-3.037-5.888-5.113-9.531-6.47
						c-3.643-1.357-6.799-2.992-11.147-2.641"/>
				</g>
			</g>
			<g>
				<g>
					<path style="fill:#e7a9f2;" d="M652.953,298.95c6.075,5.67,14.631,8.581,22.903,7.792c0.376-0.036,0.787-0.096,1.043-0.374
						c0.576-0.627-0.115-1.595-0.787-2.119C669.379,299,661.223,296.823,652.953,298.95"/>
				</g>
			</g>
			<g>
				<g>
					<path style="fill:#e7a9f2;" d="M658.737,296.834c8.03-6.02,19.041-7.837,28.579-4.716c-3.599,3.547-8.593,5.455-13.619,5.979
						C668.672,298.62,663.639,298.063,658.737,296.834"/>
				</g>
			</g>
			<g>
				<g>
					<path style="fill:#e7a9f2;" d="M656.439,282.292c-0.661-6.721-0.232-12.026-0.699-18.779c-0.037-0.539-0.153-1.189-0.658-1.383
						c-0.703-0.271-1.289,0.593-1.519,1.31c-2.001,6.225-0.907,13.364,2.866,18.704"/>
				</g>
			</g>
			<g>
				<g>
					<path style="fill:#e7a9f2;" d="M655.955,283.035c4.555-2.817,7.973-6.496,11.133-10.821c2.199-3.009,4.053-6.613,3.553-10.307
						c-3.088-0.062-6.023,1.642-8.031,3.988c-2.008,2.347-3.202,5.28-4.094,8.237C657.625,277.09,657.001,280.129,655.955,283.035"
						/>
				</g>
			</g>
			<g>
				<g>
					<path style="fill:#e7a9f2;" d="M666.894,279.996c9.998-3.697,19.325-9.197,27.399-16.156c-3.273-1.318-7.02-0.529-10.292,0.791
						c-7.476,3.018-13.584,8.111-17.25,15.291"/>
				</g>
			</g>
			<g>
				<g>
					<path style="fill:#e7a9f2;" d="M659.031,286.711c5.058,0.553,10.196,0.913,15.214,0.074c4.932-0.824,9.594-2.78,14.203-4.719
						c0.382-0.161,0.798-0.354,0.965-0.733c0.182-0.412-0.012-0.913-0.346-1.215c-0.334-0.302-0.778-0.446-1.211-0.568
						c-5.011-1.402-10.419-0.745-15.349,0.917C667.576,282.131,663.534,284.105,659.031,286.711"/>
				</g>
			</g>
			<g>
				<g>
					<path style="fill:#e7a9f2;" d="M630.15,299.18c-3.451-6.966-3.227-15.094-0.246-22.273c2.098,3.197,2.355,7.269,1.971,11.074
						c-0.384,3.805-1.542,7.721-1.617,11.545"/>
				</g>
			</g>
			<g>
				<g>
					<path style="fill:#e7a9f2;" d="M616.364,292.227c-8.615-0.165-17.234,3.507-23.084,9.834c4.3,0.676,8.729-0.433,12.64-2.343
						c3.911-1.91,7.387-4.59,10.832-7.25"/>
				</g>
			</g>
			<g>
				<g>
					<path style="fill:#e7a9f2;" d="M607.096,289.128c-4.215-0.342-8.271-0.864-12.323,0.378c-4.052,1.242-7.741,4.061-9.393,7.964
						c3.942,0.444,7.94-0.544,11.553-2.182C600.547,293.651,603.832,291.383,607.096,289.128"/>
				</g>
			</g>
			<g>
				<g>
					<path style="fill:#e7a9f2;" d="M620.819,289.27c-3.792-2.485-7.685-5.014-12.1-6.044c-4.415-1.029-9.531-0.269-12.61,3.059
						c3.574,2.097,7.91,2.345,12.054,2.342c4.144-0.003,9.224-0.05,13.13,1.332"/>
				</g>
			</g>
			<g>
				<g>
					<path style="fill:#e7a9f2;" d="M620.841,289.47c-6.482-6.365-8.94-17.8-6.332-26.503
						C619.605,270.709,621.887,280.261,620.841,289.47"/>
				</g>
			</g>
			<g>
				<g>
					<path style="fill:#e7a9f2;" d="M638.666,271.435c1.222-2.842,2.082-5.825,3.179-8.718c1.097-2.893,2.46-5.74,4.533-8.037
						c2.073-2.297,4.938-4.008,8.028-4.161c-1.934,8.758-7.752,16.585-15.581,20.961"/>
				</g>
			</g>
			<g>
				<g>
					<path style="fill:#e7a9f2;" d="M635.44,275.193c-2.023-2.785-4.361-6.565-7.104-8.643c-2.744-2.079-6.316-3.336-9.664-2.538
						C622.077,270.099,628.512,274.389,635.44,275.193"/>
				</g>
			</g>
			<g>
				<g>
					<path style="fill:#e7a9f2;" d="M636.086,271.666c-1.326-3.37-2.662-6.775-3.198-10.356c-0.536-3.581-0.21-7.406,1.621-10.53
						c3.558,6.726,4.704,13.947,1.758,20.962"/>
				</g>
			</g>
			<g>
				<g>
					<path style="fill:#e7a9f2;" d="M638.698,250.78c2.016-6.668,8.121-11.577,14.713-13.83c0.831-0.284,1.712-0.521,2.58-0.387
						c0.868,0.134,1.719,0.728,1.901,1.587c0.24,1.134-0.697,2.151-1.578,2.904C651.181,245.443,645.148,248.774,638.698,250.78"/>
				</g>
			</g>
			<g>
				<g>
					<path style="fill:#e7a9f2;" d="M638.771,245.327c0.256-4.299,0.524-8.661,1.923-12.734c1.398-4.074,4.093-7.895,8.014-9.678
						c0.667,4.342-1.249,8.662-3.559,12.398c-2.31,3.736-5.095,7.263-6.483,11.431"/>
				</g>
			</g>
			<g>
				<g>
					<path style="fill:#e7a9f2;" d="M638.666,248.286c-1.666-4.859-1.838-11.032-4.748-15.265c-2.034-2.959-5.292-4.975-7.044-8.11
						c-1.164,2.927-0.808,6.301,0.41,9.206c1.218,2.906,3.23,5.407,5.383,7.707C634.82,244.124,636.664,245.854,638.666,248.286"/>
				</g>
			</g>
			<g>
				<g>
					<g>
						<path style="fill:#263238;" d="M638.698,391.394c-0.129,0-0.242-32.417-0.251-72.397c-0.009-39.993,0.089-72.404,0.218-72.404
							s0.242,32.41,0.25,72.404C638.925,358.977,638.828,391.394,638.698,391.394z"/>
					</g>
				</g>
			</g>
			<g>
				<g>
					<g>
						<path style="fill:#263238;" d="M667.027,294.289c0.009,0.031-0.426,0.192-1.219,0.457c-0.876,0.296-2.002,0.676-3.354,1.132
							c-2.828,0.964-6.714,2.359-10.93,4.087c-4.175,1.791-8.113,3.245-10.355,5.188c-1.12,0.959-1.763,1.996-2.081,2.753
							c-0.322,0.761-0.379,1.227-0.422,1.219c-0.016-0.002-0.011-0.119,0.014-0.34c0.037-0.218,0.093-0.545,0.238-0.945
							c0.273-0.8,0.899-1.909,2.031-2.935c1.127-1.027,2.696-1.951,4.493-2.791c1.797-0.839,3.789-1.714,5.905-2.583
							c4.23-1.733,8.145-3.084,11.005-3.968c1.429-0.446,2.596-0.775,3.404-0.991C666.566,294.36,667.018,294.257,667.027,294.289z"
							/>
					</g>
				</g>
			</g>
			<g>
				<g>
					<g>
						<path style="fill:#263238;" d="M676.313,271.48c0.011,0.012-0.107,0.137-0.341,0.365c-0.276,0.259-0.62,0.582-1.04,0.977
							c-0.966,0.878-2.281,2.072-3.883,3.528c-3.353,2.986-7.901,7.035-12.925,11.509c-5.045,4.491-9.406,8.782-12.427,12.013
							c-1.513,1.614-2.704,2.95-3.517,3.883c-0.379,0.433-0.69,0.788-0.939,1.073c-0.218,0.243-0.338,0.366-0.351,0.356
							c-0.013-0.01,0.083-0.153,0.278-0.415c0.196-0.261,0.482-0.649,0.873-1.13c0.772-0.971,1.928-2.344,3.414-3.991
							c2.967-3.297,7.304-7.638,12.359-12.138c5.063-4.481,9.67-8.506,13.018-11.408c1.643-1.41,2.991-2.566,3.982-3.416
							c0.444-0.368,0.807-0.669,1.098-0.911C676.164,271.569,676.302,271.468,676.313,271.48z"/>
					</g>
				</g>
			</g>
			<g>
				<g>
					<g>
						<path style="fill:#263238;" d="M652.676,292.425c-0.132-0.059,0.922-2.493,1.972-5.57c1.06-3.077,1.559-5.675,1.693-5.653
							c0.122,0.013-0.176,2.686-1.249,5.803c-0.528,1.556-1.111,2.925-1.569,3.896C653.063,291.872,652.733,292.451,652.676,292.425
							z"/>
					</g>
				</g>
			</g>
			<g>
				<g>
					<g>
						<path style="fill:#263238;" d="M638.728,312.046c-0.026,0.019-0.302-0.303-0.778-0.902c-0.528-0.677-1.195-1.533-1.992-2.554
							c-1.673-2.163-3.986-5.148-6.578-8.415c-2.594-3.267-4.977-6.198-6.703-8.318c-0.814-1.008-1.496-1.852-2.035-2.519
							c-0.475-0.599-0.727-0.941-0.702-0.962c0.024-0.021,0.323,0.28,0.841,0.844c0.519,0.563,1.254,1.391,2.15,2.425
							c1.793,2.068,4.219,4.968,6.816,8.24c2.596,3.271,4.87,6.292,6.476,8.507c0.804,1.107,1.443,2.011,1.874,2.645
							C638.528,311.668,638.754,312.027,638.728,312.046z"/>
					</g>
				</g>
			</g>
			<g>
				<g>
					<g>
						<path style="fill:#263238;" d="M632.517,304.072c-0.077,0.082-1.734-1.884-2.602-4.872c-0.641-2.105-0.669-4.031-0.59-4.911
							l0.207,0.017c-0.093,0.375-0.161,0.573-0.197,0.567c-0.037-0.006-0.039-0.215-0.008-0.601l0.207,0.017
							c0.076,0.873,0.208,2.733,0.831,4.778C631.202,301.961,632.642,303.992,632.517,304.072z"/>
					</g>
				</g>
			</g>
			<g>
				<g>
					<g>
						<path style="fill:#263238;" d="M624.497,293.984c-0.06,0.065-0.594-0.607-1.817-1.055c-1.214-0.47-3.04-0.573-5.044-0.401
							c-2.006,0.147-3.798,0.505-5.08,0.82c-1.282,0.318-2.066,0.567-2.09,0.502c-0.021-0.055,0.725-0.417,2.001-0.821
							c1.274-0.401,3.091-0.818,5.133-0.968c2.027-0.175,3.949-0.019,5.204,0.561C624.076,293.185,624.539,293.973,624.497,293.984z
							"/>
					</g>
				</g>
			</g>
			<g>
				<g>
					<g>
						<path style="fill:#263238;" d="M622.597,291.54c-0.036,0.073-1.058-0.424-2.783-1.014c-1.722-0.592-4.175-1.214-6.945-1.43
							c-2.771-0.207-5.291,0.036-7.082,0.36c-1.795,0.321-2.881,0.657-2.905,0.58c-0.01-0.031,0.252-0.141,0.738-0.315
							c0.483-0.18,1.202-0.386,2.102-0.59c1.797-0.412,4.361-0.713,7.183-0.502c2.82,0.219,5.308,0.905,7.022,1.585
							c0.859,0.338,1.538,0.65,1.988,0.902C622.368,291.362,622.611,291.511,622.597,291.54z"/>
					</g>
				</g>
			</g>
			<g>
				<g>
					<g>
						<path style="fill:#263238;" d="M638.666,281.202c-0.125,0.032-1.034-3.125-2.03-7.051c-0.996-3.927-1.701-7.135-1.576-7.167
							c0.125-0.032,1.034,3.125,2.03,7.052C638.086,277.961,638.791,281.17,638.666,281.202z"/>
					</g>
				</g>
			</g>
			<g>
				<g>
					<g>
						<path style="fill:#263238;" d="M638.795,281.202c-0.14,0.045-0.724-2.064-2.25-4.221c-1.485-2.203-3.381-3.308-3.311-3.417
							c0.025-0.049,0.548,0.143,1.278,0.659c0.732,0.509,1.637,1.373,2.417,2.489C638.513,278.956,638.908,281.194,638.795,281.202z
							"/>
					</g>
				</g>
			</g>
			<g>
				<g>
					<g>
						<path style="fill:#263238;" d="M638.698,374.113c-0.05,0.008-0.146-0.779-0.511-2.156c-0.361-1.376-1.041-3.329-2.166-5.613
							c-2.24-4.577-6.315-10.38-11.494-16.193c-2.566-2.932-5.056-5.697-7.169-8.345c-2.117-2.644-3.856-5.164-5.126-7.393
							c-1.274-2.227-2.104-4.138-2.588-5.486c-0.238-0.676-0.412-1.204-0.508-1.569c-0.103-0.363-0.149-0.555-0.133-0.56
							c0.042-0.013,0.278,0.742,0.812,2.063c0.534,1.321,1.403,3.196,2.703,5.385c1.297,2.191,3.052,4.673,5.176,7.29
							c2.121,2.621,4.615,5.371,7.185,8.308c5.192,5.828,9.258,11.704,11.439,16.357c1.097,2.322,1.735,4.312,2.045,5.713
							c0.15,0.702,0.251,1.249,0.287,1.626C638.698,373.914,638.715,374.111,638.698,374.113z"/>
					</g>
				</g>
			</g>
			<g>
				<g>
					<g>
						<path style="fill:#263238;" d="M664.297,345.199c0.015,0.034-0.475,0.283-1.342,0.753c-0.86,0.483-2.081,1.228-3.48,2.3
							c-1.399,1.071-2.963,2.477-4.57,4.168c-1.604,1.695-3.256,3.662-4.943,5.771c-3.372,4.23-6.525,7.974-8.413,10.962
							c-0.959,1.482-1.656,2.732-2.112,3.609c-0.461,0.875-0.704,1.366-0.739,1.351c-0.015-0.007,0.028-0.137,0.124-0.381
							c0.1-0.241,0.235-0.603,0.451-1.051c0.409-0.905,1.066-2.188,1.996-3.704c1.834-3.06,4.962-6.855,8.328-11.079
							c1.69-2.113,3.362-4.084,4.997-5.776c1.637-1.689,3.243-3.086,4.683-4.135c1.44-1.05,2.701-1.759,3.594-2.197
							c0.445-0.223,0.807-0.36,1.047-0.464C664.161,345.228,664.291,345.184,664.297,345.199z"/>
					</g>
				</g>
			</g>
			<g>
				<g>
					<g>
						<path style="fill:#263238;" d="M664.798,354.579c0.006,0.068-1.083,0.2-2.836,0.412c-1.747,0.226-4.178,0.518-6.725,1.325
							c-2.538,0.827-4.647,2.086-6.022,3.16c-1.388,1.073-2.043,1.96-2.107,1.908c-0.023-0.016,0.113-0.258,0.42-0.653
							c0.303-0.397,0.8-0.928,1.477-1.512c1.352-1.165,3.482-2.501,6.088-3.349c2.609-0.826,5.074-1.065,6.836-1.208
							C663.698,354.533,664.793,354.518,664.798,354.579z"/>
					</g>
				</g>
			</g>
			<g>
				<g>
					<g>
						<path style="fill:#263238;" d="M647.936,360.353c-0.148-0.084,1.13-2.036,2.121-4.661c0.93-2.65,1.148-4.973,1.315-4.946
							c0.06,0.007,0.058,0.588-0.047,1.521c-0.111,0.93-0.335,2.223-0.827,3.584c-0.495,1.359-1.145,2.496-1.645,3.287
							C648.348,359.929,647.989,360.386,647.936,360.353z"/>
					</g>
				</g>
			</g>
			<g>
				<g>
					<g>
						<path style="fill:#263238;" d="M672.588,320.016c0.006,0.015-0.151,0.098-0.454,0.241c-0.352,0.16-0.793,0.36-1.333,0.606
							c-0.584,0.25-1.292,0.568-2.091,0.989c-0.801,0.413-1.736,0.839-2.709,1.424c-0.494,0.281-1.01,0.574-1.547,0.879
							c-0.536,0.309-1.067,0.675-1.632,1.028c-1.141,0.692-2.283,1.544-3.502,2.414c-2.386,1.811-4.895,3.955-7.311,6.43
							c-2.392,2.5-4.449,5.081-6.178,7.528c-0.828,1.249-1.64,2.42-2.293,3.583c-0.334,0.577-0.682,1.12-0.972,1.666
							c-0.287,0.547-0.562,1.073-0.826,1.576c-0.551,0.993-0.945,1.942-1.33,2.757c-0.393,0.812-0.686,1.531-0.917,2.123
							c-0.227,0.548-0.412,0.995-0.56,1.352c-0.133,0.308-0.21,0.467-0.225,0.462c-0.015-0.005,0.032-0.175,0.136-0.493
							c0.126-0.366,0.285-0.825,0.479-1.387c0.205-0.604,0.474-1.336,0.846-2.162c0.364-0.829,0.739-1.792,1.274-2.801
							c0.257-0.511,0.525-1.045,0.804-1.6c0.283-0.555,0.626-1.106,0.955-1.69c0.642-1.18,1.448-2.367,2.272-3.632
							c1.721-2.479,3.785-5.089,6.197-7.609c2.434-2.495,4.973-4.646,7.391-6.451c1.236-0.867,2.394-1.713,3.552-2.395
							c0.573-0.349,1.112-0.71,1.656-1.012c0.545-0.298,1.069-0.584,1.571-0.858c0.989-0.569,1.94-0.977,2.755-1.369
							c0.813-0.4,1.535-0.695,2.132-0.92c0.555-0.213,1.008-0.387,1.37-0.526C672.414,320.054,672.582,320.001,672.588,320.016z"/>
					</g>
				</g>
			</g>
			<g>
				<g>
					<g>
						<path style="fill:#263238;" d="M652.328,333.591c-0.041-0.007,0.184-0.794,1.114-1.659c0.907-0.864,2.562-1.664,4.489-1.722
							c1.921-0.051,3.586,0.486,4.724,0.923c1.144,0.449,1.808,0.813,1.786,0.868c-0.027,0.065-0.739-0.191-1.895-0.555
							c-1.152-0.353-2.78-0.817-4.6-0.767c-1.814,0.056-3.379,0.754-4.288,1.505C652.73,332.93,652.403,333.636,652.328,333.591z"/>
					</g>
				</g>
			</g>
			<g>
				<g>
					<g>
						<path style="fill:#263238;" d="M649.3,336.715c-0.129-0.071,1.014-1.747,1.274-4.146c0.299-2.396-0.427-4.289-0.286-4.329
							c0.051-0.021,0.306,0.419,0.526,1.208c0.222,0.785,0.368,1.927,0.224,3.175c-0.148,1.247-0.553,2.326-0.949,3.038
							C649.695,336.377,649.345,336.747,649.3,336.715z"/>
					</g>
				</g>
			</g>
		</g>
		<g>
			<g>
				<path style="fill:#455A64;" d="M616.309,378.758c0.699,12.389,4.432,24.988,10.174,37.726h24.97
					c5.476-12.612,8.951-25.192,9.569-37.726H616.309z"/>
			</g>
		</g>
		<g>
			<g>
				<g>
					<path style="fill:#FAFAFA;" d="M656.976,398.805c0,0.129-8.222,0.234-18.361,0.234c-10.143,0-18.363-0.105-18.363-0.234
						c0-0.129,8.22-0.234,18.363-0.234C648.754,398.57,656.976,398.675,656.976,398.805z"/>
				</g>
			</g>
		</g>
		<g>
			<g>
				<g>
					<path style="fill:#FAFAFA;" d="M656.418,403.293c0,0.13-7.707,0.234-17.213,0.234c-9.509,0-17.214-0.105-17.214-0.234
						c0-0.129,7.706-0.234,17.214-0.234C648.71,403.059,656.418,403.164,656.418,403.293z"/>
				</g>
			</g>
		</g>
	</g>
</g>
<g id="Envelope_3">
	<g>
		<g>
			<g>
				<path style="fill:#263238;" d="M401.758,222.825c0.143,0.015,0.204,0.584,0.136,1.27c-0.068,0.687-0.239,1.232-0.382,1.22
					c-0.143-0.013-0.204-0.582-0.136-1.271C401.444,223.356,401.615,222.81,401.758,222.825z"/>
			</g>
		</g>
		<g>
			<g>
				<path style="fill:#263238;" d="M403.09,213.085c0.142,0.024,0.091,1.13-0.113,2.469c-0.204,1.34-0.486,2.41-0.628,2.391
					c-0.142-0.019-0.092-1.124,0.113-2.469C402.667,214.131,402.949,213.061,403.09,213.085z"/>
			</g>
		</g>
		<g>
			<g>
				<path style="fill:#263238;" d="M405.054,203.453c0.14,0.034,0.015,1.134-0.278,2.456c-0.293,1.323-0.646,2.372-0.787,2.343
					c-0.141-0.028-0.016-1.128,0.278-2.456C404.562,204.468,404.914,203.419,405.054,203.453z"/>
			</g>
		</g>
		<g>
			<g>
				<path style="fill:#263238;" d="M407.717,193.99c0.137,0.045-0.07,1.132-0.462,2.428c-0.392,1.296-0.822,2.316-0.961,2.277
					c-0.139-0.038,0.068-1.125,0.463-2.428C407.151,194.965,407.581,193.945,407.717,193.99z"/>
			</g>
		</g>
		<g>
			<g>
				<path style="fill:#263238;" d="M411.15,184.778c0.132,0.057-0.166,1.123-0.666,2.381c-0.5,1.258-1.015,2.238-1.15,2.188
					c-0.135-0.05,0.163-1.115,0.667-2.381C410.503,185.702,411.018,184.722,411.15,184.778z"/>
			</g>
		</g>
		<g>
			<g>
				<path style="fill:#263238;" d="M415.409,175.93c0.126,0.069-0.271,1.101-0.886,2.305c-0.616,1.204-1.22,2.129-1.35,2.068
					c-0.13-0.062,0.267-1.093,0.887-2.305C414.679,176.786,415.283,175.86,415.409,175.93z"/>
			</g>
		</g>
		<g>
			<g>
				<path style="fill:#263238;" d="M420.55,167.551c0.118,0.083-0.4,1.06-1.152,2.185c-0.723,1.145-1.409,2.012-1.532,1.938
					c-0.123-0.074,0.367-1.069,1.095-2.222C419.719,168.319,420.433,167.469,420.55,167.551z"/>
			</g>
		</g>
		<g>
			<g>
				<path style="fill:#263238;" d="M426.606,159.811c0.107,0.096-0.506,1.017-1.37,2.057c-0.864,1.041-1.657,1.812-1.771,1.724
					c-0.114-0.088,0.5-1.009,1.37-2.057C425.706,160.488,426.499,159.716,426.606,159.811z"/>
			</g>
		</g>
		<g>
			<g>
				<path style="fill:#263238;" d="M433.535,152.842c0.095,0.108-0.624,0.95-1.605,1.879c-0.982,0.93-1.861,1.602-1.964,1.501
					c-0.103-0.101,0.616-0.942,1.606-1.879C432.56,153.406,433.44,152.734,433.535,152.842z"/>
			</g>
		</g>
		<g>
			<g>
				<path style="fill:#263238;" d="M441.272,146.783c0.08,0.119-0.738,0.864-1.829,1.663c-1.091,0.799-2.047,1.355-2.137,1.243
					c-0.089-0.113,0.729-0.857,1.829-1.663C440.235,147.221,441.192,146.664,441.272,146.783z"/>
			</g>
		</g>
		<g>
			<g>
				<path style="fill:#263238;" d="M449.746,141.806c0.063,0.129-0.849,0.756-2.038,1.4c-1.189,0.644-2.213,1.066-2.286,0.942
					c-0.074-0.123,0.839-0.75,2.038-1.4C448.66,142.098,449.683,141.677,449.746,141.806z"/>
			</g>
		</g>
		<g>
			<g>
				<path style="fill:#263238;" d="M458.848,138.105c0.043,0.137-0.952,0.623-2.221,1.084c-1.27,0.461-2.344,0.727-2.399,0.594
					c-0.055-0.133,0.939-0.618,2.221-1.084C457.731,138.234,458.805,137.968,458.848,138.105z"/>
			</g>
		</g>
		<g>
			<g>
				<path style="fill:#263238;" d="M468.414,135.878c0.02,0.144-1.045,0.434-2.375,0.664c-1.322,0.28-2.42,0.393-2.454,0.253
					c-0.034-0.14,1.021-0.482,2.356-0.764C467.286,135.798,468.395,135.737,468.414,135.878z"/>
			</g>
		</g>
		<g>
			<g>
				<path style="fill:#263238;" d="M478.222,135.337c-0.006,0.144-1.105,0.273-2.455,0.288c-1.35,0.015-2.452-0.089-2.461-0.232
					c-0.009-0.143,1.09-0.273,2.455-0.288C477.125,135.089,478.227,135.193,478.222,135.337z"/>
			</g>
		</g>
		<g>
			<g>
				<path style="fill:#263238;" d="M487.977,136.487c-0.03,0.141-1.135,0.08-2.468-0.135c-1.333-0.215-2.401-0.506-2.385-0.649
					c0.016-0.143,1.121-0.083,2.468,0.135C486.939,136.055,488.007,136.346,487.977,136.487z"/>
			</g>
		</g>
		<g>
			<g>
				<path style="fill:#263238;" d="M497.389,139.296c-0.054,0.133-1.132-0.117-2.408-0.56c-1.276-0.443-2.277-0.914-2.237-1.052
					c0.04-0.138,1.118,0.112,2.408,0.56C496.442,138.692,497.444,139.163,497.389,139.296z"/>
			</g>
		</g>
		<g>
			<g>
				<path style="fill:#263238;" d="M506.139,143.757c-0.078,0.121-1.092-0.323-2.264-0.992c-1.172-0.669-2.07-1.316-2.006-1.444
					c0.064-0.129,1.078,0.315,2.264,0.992C505.319,142.989,506.217,143.636,506.139,143.757z"/>
			</g>
		</g>
		<g>
			<g>
				<path style="fill:#263238;" d="M513.842,149.84c-0.101,0.102-1.006-0.536-2.02-1.425c-1.014-0.889-1.764-1.703-1.676-1.817
					c0.088-0.114,0.992,0.524,2.02,1.425C513.193,148.924,513.943,149.738,513.842,149.84z"/>
			</g>
		</g>
		<g>
			<g>
				<path style="fill:#263238;" d="M518.699,155.439c-0.117,0.084-0.552-0.287-0.971-0.828c-0.42-0.542-0.67-1.056-0.559-1.147
					c0.111-0.092,0.545,0.279,0.971,0.829C518.566,154.841,518.816,155.355,518.699,155.439z"/>
			</g>
		</g>
	</g>
	<g>
		<g>
			<g>
				<path style="fill:#263238;" d="M564.944,215.69c-0.056,0.132-1.121-0.233-2.377-0.817c-1.257-0.584-2.223-1.161-2.158-1.29
					c0.065-0.128,1.129,0.237,2.377,0.817C564.034,214.98,565,215.557,564.944,215.69z"/>
			</g>
		</g>
		<g>
			<g>
				<path style="fill:#263238;" d="M574.384,218.974c-0.035,0.139-1.139-0.076-2.466-0.481c-1.327-0.405-2.363-0.844-2.315-0.979
					c0.049-0.135,1.153,0.08,2.466,0.481C573.383,218.396,574.419,218.835,574.384,218.974z"/>
			</g>
		</g>
		<g>
			<g>
				<path style="fill:#263238;" d="M584.246,220.548c-0.007,0.144-1.133,0.137-2.513-0.015c-1.381-0.152-2.48-0.39-2.456-0.532
					c0.024-0.142,1.149-0.136,2.513,0.015C583.153,220.166,584.253,220.404,584.246,220.548z"/>
			</g>
		</g>
		<g>
			<g>
				<path style="fill:#263238;" d="M594.23,220.237c0.018,0.143-1.09,0.343-2.473,0.448c-1.384,0.104-2.508,0.072-2.512-0.072
					c-0.004-0.144,1.104-0.344,2.474-0.448C593.087,220.062,594.212,220.094,594.23,220.237z"/>
			</g>
		</g>
		<g>
			<g>
				<path style="fill:#263238;" d="M604.05,218.396c0.04,0.138-1.023,0.518-2.373,0.848c-1.356,0.291-2.481,0.381-2.505,0.243
					c-0.027-0.146,1.05-0.464,2.394-0.752C602.898,218.41,604.01,218.258,604.05,218.396z"/>
			</g>
		</g>
		<g>
			<g>
				<path style="fill:#263238;" d="M613.332,214.714c0.068,0.127-0.9,0.701-2.162,1.281c-1.263,0.581-2.328,0.942-2.38,0.808
					c-0.052-0.134,0.916-0.708,2.163-1.281C612.198,214.949,613.264,214.588,613.332,214.714z"/>
			</g>
		</g>
		<g>
			<g>
				<path style="fill:#263238;" d="M621.616,209.143c0.093,0.107-0.685,0.932-1.796,1.769c-1.11,0.839-2.116,1.361-2.193,1.242
					c-0.08-0.121,0.785-0.831,1.88-1.658C620.602,209.67,621.521,209.032,621.616,209.143z"/>
			</g>
		</g>
		<g>
			<g>
				<path style="fill:#263238;" d="M628.417,201.842c0.116,0.081-0.441,1.071-1.328,2.144c-0.885,1.075-1.748,1.811-1.851,1.713
					c-0.106-0.101,0.577-0.986,1.449-2.044C627.56,202.598,628.298,201.758,628.417,201.842z"/>
			</g>
		</g>
		<g>
			<g>
				<path style="fill:#263238;" d="M633.102,193.042c0.134,0.046-0.127,1.153-0.697,2.425c-0.567,1.273-1.214,2.208-1.338,2.139
					c-0.128-0.07,0.305-1.1,0.862-2.351C632.489,194.005,632.964,192.994,633.102,193.042z"/>
			</g>
		</g>
		<g>
			<g>
				<path style="fill:#263238;" d="M634.948,183.259c0.141,0,0.256,1.133,0.113,2.522c-0.14,1.39-0.485,2.477-0.623,2.447
					c-0.143-0.03-0.032-1.139,0.105-2.5C634.683,184.369,634.802,183.258,634.948,183.259z"/>
			</g>
		</g>
		<g>
			<g>
				<path style="fill:#263238;" d="M633.507,173.403c0.134-0.044,0.593,0.997,0.902,2.356c0.312,1.36,0.348,2.497,0.207,2.515
					c-0.145,0.02-0.409-1.065-0.715-2.399C633.599,174.54,633.368,173.447,633.507,173.403z"/>
			</g>
		</g>
		<g>
			<g>
				<path style="fill:#263238;" d="M629.16,164.436c0.115-0.082,0.865,0.773,1.565,1.979c0.703,1.205,1.077,2.279,0.949,2.338
					c-0.132,0.062-0.709-0.894-1.399-2.076C629.589,165.494,629.04,164.521,629.16,164.436z"/>
			</g>
		</g>
		<g>
			<g>
				<path style="fill:#263238;" d="M622.221,157.303c0.08-0.116,1.078,0.435,2.131,1.352c1.056,0.914,1.747,1.819,1.643,1.915
					c-0.107,0.101-0.951-0.628-1.985-1.522C622.981,158.152,622.137,157.423,622.221,157.303z"/>
			</g>
		</g>
		<g>
			<g>
				<path style="fill:#263238;" d="M613.154,153.243c0.026-0.138,1.165-0.034,2.495,0.406c1.332,0.437,2.31,1.028,2.249,1.154
					c-0.062,0.134-1.115-0.235-2.412-0.66C614.191,153.714,613.125,153.387,613.154,153.243z"/>
			</g>
		</g>
		<g>
			<g>
				<path style="fill:#263238;" d="M603.237,153.407c-0.038-0.135,1.032-0.545,2.422-0.725c1.39-0.184,2.529-0.065,2.527,0.075
					c0,0.147-1.108,0.262-2.46,0.442C604.375,153.373,603.275,153.55,603.237,153.407z"/>
			</g>
		</g>
		<g>
			<g>
				<path style="fill:#263238;" d="M594.619,158.233c-0.105-0.092,0.583-1.021,1.71-1.869c1.123-0.852,2.195-1.273,2.257-1.149
					c0.07,0.132-0.861,0.743-1.943,1.565C595.557,157.595,594.728,158.333,594.619,158.233z"/>
			</g>
		</g>
		<g>
			<g>
				<path style="fill:#263238;" d="M590.662,167.206c-0.138-0.006-0.193-1.158,0.144-2.528c0.332-1.373,0.925-2.367,1.049-2.305
					c0.135,0.062-0.226,1.111-0.544,2.429C590.988,166.117,590.812,167.215,590.662,167.206z"/>
			</g>
		</g>
		<g>
			<g>
				<path style="fill:#263238;" d="M592.614,176.901c-0.123,0.066-0.758-0.891-1.217-2.221c-0.463-1.328-0.555-2.474-0.417-2.498
					c0.145-0.027,0.46,1.041,0.909,2.327C592.333,175.798,592.746,176.833,592.614,176.901z"/>
			</g>
		</g>
		<g>
			<g>
				<path style="fill:#263238;" d="M599.15,184.339c-0.078,0.116-1.086-0.424-2.134-1.354c-1.053-0.927-1.708-1.867-1.6-1.958
					c0.111-0.096,0.922,0.666,1.945,1.568C598.38,183.499,599.234,184.217,599.15,184.339z"/>
			</g>
		</g>
		<g>
			<g>
				<path style="fill:#263238;" d="M608.226,188.406c-0.032,0.137-1.161-0.01-2.481-0.462c-1.322-0.449-2.304-1.028-2.244-1.156
					c0.061-0.133,1.117,0.224,2.412,0.663C607.207,187.894,608.26,188.264,608.226,188.406z"/>
			</g>
		</g>
		<g>
			<g>
				<path style="fill:#263238;" d="M618.149,189.35c0.009,0.141-1.112,0.326-2.505,0.295c-1.393-0.027-2.505-0.26-2.49-0.4
					c0.015-0.146,1.132-0.146,2.501-0.12C617.024,189.154,618.14,189.204,618.149,189.35z"/>
			</g>
		</g>
		<g>
			<g>
				<path style="fill:#263238;" d="M627.948,187.535c0.045,0.134-0.987,0.603-2.335,0.946c-1.348,0.345-2.48,0.426-2.504,0.286
					c-0.025-0.144,1.048-0.451,2.375-0.791C626.811,187.639,627.902,187.396,627.948,187.535z"/>
			</g>
		</g>
		<g>
			<g>
				<path style="fill:#263238;" d="M637.018,183.38c0.075,0.123-0.859,0.749-2.088,1.398c-1.228,0.65-2.272,1.069-2.331,0.938
					c-0.059-0.131,0.876-0.757,2.088-1.398C635.899,183.677,636.943,183.258,637.018,183.38z"/>
			</g>
		</g>
		<g>
			<g>
				<path style="fill:#263238;" d="M645.034,177.423c0.097,0.106-0.694,0.907-1.767,1.788c-1.073,0.881-2.013,1.501-2.097,1.385
					c-0.085-0.116,0.706-0.916,1.767-1.788C643.998,177.937,644.937,177.317,645.034,177.423z"/>
			</g>
		</g>
		<g>
			<g>
				<path style="fill:#263238;" d="M651.845,170.113c0.114,0.088-0.525,1.015-1.426,2.07c-0.902,1.055-1.718,1.83-1.822,1.731
					c-0.104-0.099,0.534-1.025,1.426-2.07C650.915,170.801,651.731,170.026,651.845,170.113z"/>
			</g>
		</g>
		<g>
			<g>
				<path style="fill:#263238;" d="M657.342,161.77c0.127,0.068-0.35,1.087-1.065,2.277c-0.715,1.19-1.392,2.089-1.511,2.009
					c-0.119-0.08,0.357-1.099,1.065-2.277C656.538,162.601,657.215,161.702,657.342,161.77z"/>
			</g>
		</g>
		<g>
			<g>
				<path style="fill:#263238;" d="M661.397,152.634c0.136,0.048-0.164,1.133-0.67,2.424c-0.495,1.295-1.035,2.285-1.176,2.223
					c-0.122-0.055,0.201-1.13,0.692-2.415C660.745,153.585,661.262,152.586,661.397,152.634z"/>
			</g>
		</g>
		<g>
			<g>
				<path style="fill:#263238;" d="M664.193,143.038c0.14,0.032-0.028,1.144-0.375,2.485c-0.348,1.341-0.742,2.395-0.88,2.354
					c-0.138-0.041,0.03-1.153,0.375-2.485C663.659,144.061,664.053,143.007,664.193,143.038z"/>
			</g>
		</g>
		<g>
			<g>
				<path style="fill:#263238;" d="M665.943,133.197c0.143,0.018,0.089,1.142-0.121,2.51c-0.21,1.369-0.494,2.457-0.636,2.432
					c-0.141-0.026-0.087-1.15,0.121-2.511C665.516,134.267,665.801,133.178,665.943,133.197z"/>
			</g>
		</g>
		<g>
			<g>
				<path style="fill:#263238;" d="M666.864,123.241c0.144,0.008,0.177,1.133,0.074,2.512c-0.103,1.38-0.302,2.487-0.445,2.474
					c-0.143-0.014-0.176-1.138-0.074-2.513C666.521,124.34,666.721,123.233,666.864,123.241z"/>
			</g>
		</g>
		<g>
			<g>
				<path style="fill:#263238;" d="M667.182,113.249c0.144,0.001,0.239,1.123,0.212,2.505c-0.027,1.383-0.165,2.499-0.309,2.494
					c-0.144-0.005-0.239-1.126-0.212-2.505C666.9,114.365,667.038,113.248,667.182,113.249z"/>
			</g>
		</g>
		<g>
			<g>
				<path style="fill:#263238;" d="M667.109,103.25c0.144-0.003,0.276,1.115,0.296,2.496c0.02,1.382-0.081,2.503-0.224,2.504
					s-0.276-1.116-0.296-2.496C666.865,104.374,666.966,103.253,667.109,103.25z"/>
			</g>
		</g>
		<g>
			<g>
				<path style="fill:#263238;" d="M666.961,97.1c0.144-0.004,0.267,0.25,0.276,0.567c0.009,0.317-0.101,0.577-0.245,0.581
					c-0.144,0.004-0.267-0.25-0.276-0.567C666.707,97.364,666.817,97.104,666.961,97.1z"/>
			</g>
		</g>
	</g>
	<g>
		<g>
			
				<rect x="623.186" y="70.992" transform="matrix(0.9942 -0.108 0.108 0.9942 -6.31 71.5234)" style="fill:#e7a9f2;" width="68.374" height="46.087"/>
			<path style="fill:#263238;" d="M625.851,120.662l-0.002-0.024l-4.979-45.842l0.025-0.003l68-7.385l0.002,0.024l4.979,45.842
				l-0.024,0.003L625.851,120.662z M620.925,74.84l4.971,45.767l67.925-7.376l-4.971-45.768L620.925,74.84z"/>
		</g>
		<g>
			<g>
				<g>
					<path style="fill:#263238;" d="M689.15,67.963c0.015,0.015-0.18,0.248-0.567,0.679c-0.432,0.47-1.001,1.09-1.713,1.864
						c-1.554,1.65-3.723,3.953-6.387,6.781c-5.48,5.731-12.981,13.576-21.289,22.266l-0.175,0.183l-0.215-0.136
						c-0.164-0.104-0.341-0.217-0.519-0.33c-10.251-6.549-19.528-12.476-26.311-16.809c-3.308-2.149-6.004-3.9-7.935-5.154
						c-0.89-0.593-1.601-1.068-2.141-1.428c-0.486-0.332-0.735-0.515-0.724-0.534c0.011-0.018,0.283,0.13,0.791,0.428
						c0.555,0.335,1.287,0.777,2.203,1.329c1.956,1.213,4.689,2.908,8.041,4.987c6.808,4.294,16.119,10.167,26.408,16.656
						c0.178,0.113,0.355,0.226,0.519,0.33l-0.39,0.047c8.36-8.639,15.908-16.439,21.422-22.138c2.723-2.771,4.94-5.029,6.528-6.645
						c0.746-0.741,1.343-1.334,1.796-1.784C688.909,68.153,689.134,67.948,689.15,67.963z"/>
				</g>
			</g>
		</g>
		<g>
			<g>
				<path style="fill:#263238;" d="M626.151,121.163c-0.142-0.096,4.287-6.931,9.892-15.266
					c5.607-8.337,10.266-15.016,10.409-14.921c0.142,0.096-4.286,6.93-9.893,15.267
					C630.953,114.578,626.293,121.258,626.151,121.163z"/>
			</g>
		</g>
		<g>
			<g>
				<path style="fill:#263238;" d="M668.985,87.949c0.123-0.119,5.851,5.567,12.792,12.699c6.944,7.135,12.471,13.013,12.349,13.133
					s-5.85-5.565-12.794-12.7C674.391,93.949,668.862,88.069,668.985,87.949z"/>
			</g>
		</g>
	</g>
</g>
<g id="Envelope_2">
	<g>
		<g>
			<g>
				<path style="fill:#263238;" d="M378.471,206.348c0.142-0.024,0.35,0.509,0.466,1.19c0.115,0.682,0.094,1.253-0.048,1.277
					c-0.142,0.024-0.35-0.509-0.466-1.19C378.308,206.943,378.33,206.372,378.471,206.348z"/>
			</g>
		</g>
		<g>
			<g>
				<path style="fill:#263238;" d="M376.87,196.591c0.142-0.022,0.433,1.052,0.65,2.399c0.217,1.347,0.278,2.458,0.136,2.482
					c-0.142,0.023-0.433-1.05-0.65-2.399C376.789,197.725,376.728,196.613,376.87,196.591z"/>
			</g>
		</g>
		<g>
			<g>
				<path style="fill:#263238;" d="M375.443,186.808c0.143-0.019,0.411,1.061,0.6,2.412c0.189,1.351,0.226,2.463,0.084,2.484
					s-0.411-1.059-0.6-2.412C375.338,187.939,375.301,186.827,375.443,186.808z"/>
			</g>
		</g>
		<g>
			<g>
				<path style="fill:#263238;" d="M374.318,176.986c0.143-0.013,0.375,1.075,0.517,2.431c0.142,1.356,0.142,2.469-0.001,2.485
					c-0.143,0.017-0.374-1.072-0.517-2.431C374.175,178.112,374.175,176.999,374.318,176.986z"/>
			</g>
		</g>
		<g>
			<g>
				<path style="fill:#263238;" d="M373.632,167.124c0.144-0.006,0.323,1.093,0.4,2.453c0.077,1.361,0.023,2.472-0.12,2.482
					c-0.143,0.01-0.322-1.088-0.4-2.453C373.434,168.241,373.488,167.13,373.632,167.124z"/>
			</g>
		</g>
		<g>
			<g>
				<path style="fill:#263238;" d="M373.526,157.235c0.144,0.004,0.254,1.112,0.246,2.475c-0.008,1.363-0.131,2.47-0.275,2.472
					c-0.144,0.002-0.254-1.106-0.246-2.476C373.259,158.338,373.382,157.231,373.526,157.235z"/>
			</g>
		</g>
		<g>
			<g>
				<path style="fill:#263238;" d="M374.147,147.374c0.143,0.016,0.167,1.128,0.054,2.485c-0.113,1.357-0.321,2.45-0.465,2.441
					c-0.144-0.008-0.168-1.121-0.054-2.485C373.796,148.452,374.004,147.358,374.147,147.374z"/>
			</g>
		</g>
		<g>
			<g>
				<path style="fill:#263238;" d="M375.635,137.601c0.141,0.029,0.063,1.14-0.174,2.48c-0.237,1.341-0.544,2.41-0.686,2.389
					c-0.142-0.021-0.065-1.131,0.174-2.48C375.186,138.642,375.494,137.572,375.635,137.601z"/>
			</g>
		</g>
		<g>
			<g>
				<path style="fill:#263238;" d="M378.155,128.047c0.136,0.046-0.067,1.14-0.455,2.443c-0.388,1.303-0.815,2.331-0.954,2.295
					c-0.139-0.036,0.064-1.13,0.455-2.443C377.592,129.028,378.019,128.001,378.155,128.047z"/>
			</g>
		</g>
		<g>
			<g>
				<path style="fill:#263238;" d="M381.852,118.882c0.129,0.063-0.21,1.123-0.757,2.367c-0.548,1.245-1.1,2.21-1.234,2.157
					c-0.134-0.053,0.205-1.113,0.758-2.367C381.17,119.786,381.722,118.82,381.852,118.882z"/>
			</g>
		</g>
		<g>
			<g>
				<path style="fill:#263238;" d="M386.675,110.257c0.12,0.079-0.351,1.087-1.052,2.252c-0.702,1.165-1.372,2.053-1.498,1.983
					c-0.126-0.069,0.345-1.077,1.052-2.252C385.883,111.066,386.554,110.178,386.675,110.257z"/>
			</g>
		</g>
		<g>
			<g>
				<path style="fill:#263238;" d="M392.603,102.352c0.108,0.095-0.496,1.03-1.348,2.088c-0.853,1.058-1.638,1.847-1.754,1.761
					c-0.116-0.085,0.488-1.02,1.348-2.088C391.71,103.046,392.495,102.257,392.603,102.352z"/>
			</g>
		</g>
		<g>
			<g>
				<path style="fill:#263238;" d="M399.628,95.405c0.092,0.111-0.646,0.944-1.648,1.86c-1.003,0.917-1.898,1.577-2,1.476
					c-0.102-0.101,0.636-0.934,1.648-1.861C398.641,95.955,399.536,95.294,399.628,95.405z"/>
			</g>
		</g>
		<g>
			<g>
				<path style="fill:#263238;" d="M407.708,89.725c0.071,0.125-0.799,0.819-1.943,1.549c-1.144,0.73-2.14,1.227-2.224,1.11
					c-0.084-0.117,0.786-0.811,1.944-1.549C406.642,90.096,407.637,89.599,407.708,89.725z"/>
			</g>
		</g>
		<g>
			<g>
				<path style="fill:#263238;" d="M416.712,85.671c0.044,0.137-0.944,0.649-2.207,1.143c-1.263,0.494-2.336,0.788-2.397,0.658
					c-0.06-0.131,0.928-0.642,2.207-1.143C415.594,85.829,416.668,85.535,416.712,85.671z"/>
			</g>
		</g>
		<g>
			<g>
				<path style="fill:#263238;" d="M423.933,83.893c0.022,0.142-0.505,0.361-1.177,0.489c-0.673,0.128-1.243,0.118-1.275-0.022
					c-0.031-0.14,0.496-0.359,1.177-0.489C423.34,83.741,423.91,83.751,423.933,83.893z"/>
			</g>
		</g>
	</g>
	<g>
		<g>
			
				<rect x="371.319" y="45.949" transform="matrix(0.3607 -0.9327 0.9327 0.3607 175.8904 422.8384)" style="fill:#e7a9f2;" width="50.11" height="74.344"/>
			<path style="fill:#263238;" d="M422.022,119.928l-0.023-0.009l-69.363-26.822l0.009-0.023l18.082-46.761l0.023,0.009
				l69.363,26.822l-0.009,0.023L422.022,119.928z M352.7,93.069l69.293,26.795l18.055-46.691l-69.293-26.795L352.7,93.069z"/>
		</g>
		<g>
			<g>
				<path style="fill:#263238;" d="M440.085,73.806c0.008,0.022-0.298,0.149-0.886,0.372c-0.652,0.238-1.511,0.552-2.585,0.945
					c-2.324,0.817-5.57,1.959-9.555,3.361c-8.155,2.799-19.317,6.631-31.681,10.875l-0.261,0.09l-0.139-0.239
					c-0.106-0.182-0.222-0.38-0.337-0.578c-6.631-11.445-12.631-21.801-17.019-29.374c-2.122-3.727-3.852-6.765-5.09-8.94
					c-0.563-1.017-1.013-1.831-1.354-2.448c-0.303-0.563-0.453-0.865-0.432-0.877c0.02-0.012,0.209,0.267,0.55,0.808
					c0.369,0.6,0.855,1.393,1.464,2.384c1.284,2.149,3.076,5.15,5.276,8.832c4.431,7.547,10.492,17.868,17.189,29.274
					c0.115,0.198,0.231,0.395,0.337,0.578l-0.4-0.149c12.389-4.17,23.574-7.934,31.745-10.685c4.013-1.317,7.283-2.39,9.624-3.159
					c1.091-0.343,1.963-0.618,2.625-0.826C439.757,73.869,440.077,73.784,440.085,73.806z"/>
			</g>
		</g>
		<g>
			<path style="fill:#263238;" d="M352.672,93.731c-0.09-0.163,7.602-4.554,17.178-9.805c9.579-5.253,17.414-9.377,17.504-9.214
				c0.09,0.163-7.6,4.553-17.179,9.806C360.598,89.769,352.761,93.894,352.672,93.731z"/>
		</g>
		<g>
			<path style="fill:#263238;" d="M410.628,83.04c0.178-0.054,2.871,8.298,6.014,18.653c3.144,10.358,5.547,18.797,5.369,18.851
				c-0.178,0.054-2.871-8.296-6.015-18.655C412.854,91.534,410.45,83.094,410.628,83.04z"/>
		</g>
	</g>
</g>
<g id="Envelope_1">
	<g>
		<g>
			<g>
				<path style="fill:#263238;" d="M349.349,217.293c0.144,0.01,0.215,0.578,0.159,1.268c-0.056,0.691-0.217,1.24-0.361,1.226
					c-0.143-0.013-0.214-0.581-0.159-1.268C349.044,217.833,349.206,217.283,349.349,217.293z"/>
			</g>
		</g>
		<g>
			<g>
				<path style="fill:#263238;" d="M349.603,207.123c0.144-0.004,0.258,1.136,0.254,2.544c-0.003,1.409-0.122,2.548-0.266,2.544
					c-0.144-0.004-0.258-1.143-0.254-2.545C349.34,208.266,349.459,207.127,349.603,207.123z"/>
			</g>
		</g>
		<g>
			<g>
				<path style="fill:#263238;" d="M348.911,196.974c0.143-0.017,0.364,1.106,0.493,2.509c0.13,1.403,0.118,2.548-0.026,2.557
					c-0.143,0.009-0.364-1.114-0.493-2.509C348.757,198.137,348.768,196.992,348.911,196.974z"/>
			</g>
		</g>
		<g>
			<g>
				<path style="fill:#263238;" d="M347.215,186.944c0.14-0.032,0.474,1.063,0.744,2.446c0.271,1.383,0.375,2.523,0.233,2.547
					c-0.142,0.023-0.475-1.072-0.744-2.447C347.179,188.117,347.075,186.976,347.215,186.944z"/>
			</g>
		</g>
		<g>
			<g>
				<path style="fill:#263238;" d="M344.451,177.154c0.136-0.048,0.587,1.005,1.008,2.35c0.421,1.346,0.65,2.468,0.511,2.506
					c-0.139,0.038-0.59-1.014-1.008-2.351C344.544,178.324,344.315,177.202,344.451,177.154z"/>
			</g>
		</g>
		<g>
			<g>
				<path style="fill:#263238;" d="M340.562,167.761c0.129-0.064,0.703,0.927,1.282,2.213c0.579,1.286,0.94,2.373,0.807,2.427
					c-0.133,0.054-0.707-0.936-1.282-2.213C340.795,168.911,340.434,167.825,340.562,167.761z"/>
			</g>
		</g>
		<g>
			<g>
				<path style="fill:#263238;" d="M335.511,158.934c0.118-0.08,0.837,0.816,1.595,2.007c0.721,1.214,1.204,2.255,1.079,2.326
					c-0.125,0.071-0.807-0.848-1.523-2.052C335.912,160.033,335.391,159.016,335.511,158.934z"/>
			</g>
		</g>
		<g>
			<g>
				<path style="fill:#263238;" d="M329.28,150.898c0.107-0.097,0.926,0.703,1.829,1.787c0.904,1.084,1.543,2.033,1.429,2.121
					s-0.933-0.712-1.829-1.787C329.814,151.944,329.174,150.994,329.28,150.898z"/>
			</g>
		</g>
		<g>
			<g>
				<path style="fill:#263238;" d="M321.976,143.823c0.092-0.111,1.016,0.565,2.063,1.51c1.048,0.945,1.816,1.794,1.715,1.897
					c-0.101,0.103-1.025-0.573-2.064-1.51C322.652,144.783,321.884,143.933,321.976,143.823z"/>
			</g>
		</g>
		<g>
			<g>
				<path style="fill:#263238;" d="M313.726,137.877c0.074-0.123,1.087,0.411,2.262,1.193c1.175,0.782,2.058,1.511,1.973,1.627
					c-0.085,0.116-1.098-0.418-2.262-1.193C314.535,138.729,313.652,138,313.726,137.877z"/>
			</g>
		</g>
		<g>
			<g>
				<path style="fill:#263238;" d="M304.666,133.258c0.054-0.133,1.138,0.238,2.42,0.829c1.283,0.591,2.269,1.174,2.203,1.302
					c-0.066,0.128-1.15-0.243-2.421-0.829C305.598,133.974,304.612,133.391,304.666,133.258z"/>
			</g>
		</g>
		<g>
			<g>
				<path style="fill:#263238;" d="M294.973,130.192c0.03-0.141,1.16,0.043,2.524,0.411c1.364,0.368,2.433,0.777,2.389,0.914
					c-0.044,0.137-1.174-0.047-2.524-0.411C296.012,130.742,294.943,130.333,294.973,130.192z"/>
			</g>
		</g>
		<g>
			<g>
				<path style="fill:#263238;" d="M284.892,128.903c0.003-0.142,1.15-0.201,2.561-0.115c1.405,0.147,2.529,0.382,2.509,0.524
					c-0.02,0.143-1.162,0.14-2.551-0.005C286.017,129.222,284.889,129.048,284.892,128.903z"/>
			</g>
		</g>
		<g>
			<g>
				<path style="fill:#263238;" d="M274.753,129.601c-0.025-0.142,1.092-0.392,2.496-0.558c1.404-0.166,2.548-0.184,2.557-0.04
					c0.009,0.143-1.108,0.393-2.496,0.557C275.923,129.725,274.778,129.743,274.753,129.601z"/>
			</g>
		</g>
		<g>
			<g>
				<path style="fill:#263238;" d="M264.931,132.216c-0.051-0.135,0.999-0.59,2.346-1.018c1.347-0.427,2.468-0.66,2.504-0.521
					c0.036,0.139-1.014,0.595-2.346,1.018C266.103,132.117,264.982,132.351,264.931,132.216z"/>
			</g>
		</g>
		<g>
			<g>
				<path style="fill:#263238;" d="M255.772,136.625c-0.076-0.122,0.87-0.767,2.113-1.44c1.243-0.673,2.3-1.112,2.361-0.982
					c0.061,0.13-0.885,0.775-2.113,1.44C256.905,136.308,255.848,136.747,255.772,136.625z"/>
			</g>
		</g>
		<g>
			<g>
				<path style="fill:#263238;" d="M247.648,142.731c-0.099-0.104,0.701-0.924,1.786-1.829c1.086-0.906,2.035-1.546,2.12-1.43
					c0.085,0.116-0.714,0.935-1.787,1.829C248.697,142.195,247.747,142.835,247.648,142.731z"/>
			</g>
		</g>
		<g>
			<g>
				<path style="fill:#263238;" d="M241,150.405c-0.118-0.079,0.425-1.097,1.292-2.215c0.865-1.12,1.713-1.902,1.819-1.808
					c0.109,0.096-0.554,1.022-1.407,2.127C241.849,149.612,241.121,150.487,241,150.405z"/>
			</g>
		</g>
		<g>
			<g>
				<path style="fill:#263238;" d="M237.29,157.009c-0.132-0.058,0.008-0.613,0.311-1.238c0.304-0.626,0.653-1.079,0.78-1.011
					c0.127,0.067-0.012,0.622-0.312,1.239C237.77,156.615,237.421,157.068,237.29,157.009z"/>
			</g>
		</g>
	</g>
	<g>
		<g>
			<g>
				<path style="fill:#263238;" d="M173.751,216.024c-0.01-0.144,0.532-0.327,1.21-0.409c0.678-0.082,1.248-0.034,1.273,0.108
					c0.025,0.142-0.517,0.325-1.21,0.409C174.33,216.216,173.76,216.167,173.751,216.024z"/>
			</g>
		</g>
		<g>
			<g>
				<path style="fill:#263238;" d="M163.846,214.9c0.045-0.14,1.139,0.09,2.48,0.37c1.34,0.284,2.435,0.51,2.42,0.656
					c-0.013,0.14-1.156,0.144-2.527-0.146C164.848,215.494,163.802,215.034,163.846,214.9z"/>
			</g>
		</g>
		<g>
			<g>
				<path style="fill:#263238;" d="M154.895,210.474c0.085-0.119,1.06,0.433,2.239,1.136c1.178,0.705,2.129,1.295,2.065,1.427
					c-0.061,0.128-1.133-0.262-2.332-0.98C155.667,211.342,154.813,210.589,154.895,210.474z"/>
			</g>
		</g>
		<g>
			<g>
				<path style="fill:#263238;" d="M147.452,203.794c0.11-0.096,0.931,0.669,1.899,1.646c0.966,0.979,1.724,1.806,1.627,1.915
					c-0.094,0.107-1.018-0.556-1.997-1.549C148,204.816,147.345,203.887,147.452,203.794z"/>
			</g>
		</g>
		<g>
			<g>
				<path style="fill:#263238;" d="M141.571,195.693c0.124-0.072,0.837,0.802,1.591,1.952c0.754,1.151,1.271,2.153,1.155,2.238
					c-0.116,0.085-0.828-0.789-1.591-1.953C141.964,196.767,141.447,195.765,141.571,195.693z"/>
			</g>
		</g>
		<g>
			<g>
				<path style="fill:#263238;" d="M137.251,186.659c0.135-0.05,0.682,0.936,1.222,2.203c0.54,1.267,0.872,2.345,0.743,2.408
					c-0.129,0.063-0.676-0.923-1.222-2.203C137.448,187.787,137.116,186.709,137.251,186.659z"/>
			</g>
		</g>
		<g>
			<g>
				<path style="fill:#263238;" d="M134.377,177.063c0.14-0.031,0.538,1.024,0.888,2.357c0.35,1.334,0.522,2.448,0.385,2.49
					c-0.137,0.042-0.535-1.013-0.888-2.357C134.409,178.209,134.237,177.094,134.377,177.063z"/>
			</g>
		</g>
		<g>
			<g>
				<path style="fill:#263238;" d="M132.637,167.194c0.143-0.018,0.426,1.074,0.633,2.438c0.207,1.365,0.259,2.492,0.118,2.517
					c-0.141,0.025-0.425-1.066-0.633-2.439C132.547,168.339,132.495,167.212,132.637,167.194z"/>
			</g>
		</g>
		<g>
			<g>
				<path style="fill:#263238;" d="M131.676,157.217c0.144-0.01,0.35,1.099,0.462,2.477c0.112,1.378,0.086,2.505-0.057,2.519
					c-0.143,0.014-0.35-1.095-0.462-2.477C131.507,158.354,131.533,157.226,131.676,157.217z"/>
			</g>
		</g>
		<g>
			<g>
				<path style="fill:#263238;" d="M131.262,149.709c0.144-0.006,0.287,0.547,0.32,1.236c0.033,0.689-0.057,1.254-0.201,1.261
					c-0.144,0.007-0.287-0.546-0.319-1.236C131.028,150.28,131.118,149.715,131.262,149.709z"/>
			</g>
		</g>
	</g>
	<g>
		<g>
			
				<rect x="87.037" y="91.009" transform="matrix(0.9989 -0.0471 0.0471 0.9989 -5.4632 6.1896)" style="fill:#e7a9f2;" width="83.243" height="56.108"/>
			<path style="fill:#263238;" d="M88.38,149.073l-0.001-0.025l-2.643-56.071l0.025-0.001l83.175-3.92l0.001,0.025l2.643,56.071
				l-0.025,0.001L88.38,149.073z M85.788,93.024l2.639,55.996l83.1-3.917l-2.639-55.996L85.788,93.024z"/>
		</g>
		<g>
			<g>
				<g>
					<path style="fill:#263238;" d="M169.21,89.742c0.018,0.019-0.237,0.288-0.739,0.783c-0.56,0.539-1.298,1.25-2.22,2.138
						c-2.01,1.889-4.818,4.527-8.265,7.766c-7.085,6.557-16.783,15.533-27.525,25.475l-0.227,0.21l-0.251-0.182
						c-0.191-0.138-0.399-0.289-0.607-0.439c-11.97-8.72-22.803-16.612-30.723-22.382c-3.86-2.857-7.007-5.185-9.259-6.853
						c-1.037-0.787-1.867-1.417-2.495-1.894c-0.565-0.44-0.855-0.681-0.84-0.702c0.015-0.021,0.335,0.179,0.929,0.579
						c0.649,0.448,1.507,1.04,2.578,1.779c2.287,1.62,5.481,3.882,9.4,6.658c7.954,5.724,18.832,13.552,30.853,22.203
						c0.208,0.15,0.415,0.301,0.606,0.439l-0.477,0.028c10.801-9.877,20.553-18.795,27.677-25.31
						c3.514-3.165,6.377-5.744,8.427-7.59c0.962-0.845,1.731-1.521,2.315-2.034C168.903,89.955,169.192,89.723,169.21,89.742z"/>
				</g>
			</g>
		</g>
		<g>
			<g>
				<path style="fill:#263238;" d="M88.701,149.708c-0.166-0.127,5.725-8.104,13.155-17.816
					c7.433-9.715,13.591-17.485,13.757-17.358c0.166,0.127-5.724,8.102-13.157,17.817C95.026,142.063,88.867,149.834,88.701,149.708
					z"/>
			</g>
		</g>
		<g>
			<g>
				<path style="fill:#263238;" d="M143.22,112.53c0.158-0.136,6.696,7.199,14.601,16.382c7.908,9.186,14.188,16.74,14.03,16.876
					c-0.158,0.136-6.695-7.198-14.603-16.383C149.344,120.222,143.062,112.666,143.22,112.53z"/>
			</g>
		</g>
	</g>
</g>

</svg>
