<?xml version="1.0" encoding="utf-8"?>
<!-- Generator: Adobe Illustrator 27.5.0, SVG Export Plug-In . SVG Version: 6.00 Build 0)  -->
<svg version="1.1" xmlns="http://www.w3.org/2000/svg" xmlns:xlink="http://www.w3.org/1999/xlink" x="0px" y="0px"
	 viewBox="0 0 500 500" style="enable-background:new 0 0 500 500;" xml:space="preserve">
<g id="Device_00000027569618248169348760000011159616475168069052_">
	<g id="Device_00000139985893829169397050000004091343212197289636_">
		<g>
			<path style="fill:#B16668;" d="M410.25,364.48l0.004-0.009c-0.059-0.033-0.118-0.067-0.177-0.1
				c-0.537-0.346-1.087-0.661-1.65-0.939c-19.56-11.228-34.96-23.331-41.57-43.211c-7.511-22.587-53.499-42.266-54.295-26.073
				c-0.813,16.545-159.655-62.761-159.655-62.761l33.182,145.977c0,0,27.333,12.045,59.061,26.135
				c27.233,12.094,41.229,15.402,54.489,19.03c6.824,1.867,12.286,3.639,16.541,6.485c17.344,11.602,48.88,34.181,52.688,36.911
				c0.108,0.078,0.215,0.158,0.325,0.233c0.033,0.024,0.056,0.04,0.056,0.04l0.001-0.004c5.612,3.801,12.773,3.893,20.578-0.613
				c18.006-10.396,32.603-41.297,32.603-69.019C422.43,380.747,417.674,369.394,410.25,364.48z"/>
			<path style="fill:#9A4A4D;" d="M318.28,313.149l1.251-18.148c-1.404-1.054-3.403-2.855-5.445-4.669
				c-0.904,0.936-1.444,2.192-1.524,3.816c-0.181,3.683-8.197,2.614-20.544-1.271c0,0,0,0,0,0l7.208,31.16l-99.033,59.551
				c3.797,1.678,8.301,3.669,13.22,5.845l89.954-52.432c5.537,24.755,29.529,28.407,29.529,28.407L318.28,313.149z"/>
		</g>
		<g id="Mobile_4_">
			<g>
				<path style="fill:#37474F;" d="M311.445,316.384L259.798,89.175c-1.242-5.462-5.01-6.763-8.368-7.971
					c-3.357-1.208-8.558-1.751-12.432,0.486l-99.17,57.255c-3.873,2.236-6.285,7.254-5.386,11.208l51.646,227.21
					c0.899,3.954,4.56,6.096,7.918,7.305c3.358,1.208,9.009,2.417,12.883,0.181l99.17-57.256
					C309.932,325.356,312.696,321.891,311.445,316.384z"/>
				<path style="fill:#263238;" d="M304.862,318.816l-101.977,58.876l-51.819-228.129l-15.721-5.657
					c-0.974,2.028-1.352,4.271-0.903,6.247l51.646,227.21c0.899,3.954,4.56,6.096,7.918,7.305c3.358,1.208,9.009,2.417,12.883,0.181
					l99.17-57.256c2.42-1.397,4.668-3.412,5.415-6.396c0,0-0.486-0.175-0.486-0.175L304.862,318.816z"/>
			</g>
			<path style="fill:#455A64;" d="M251.349,87.823l-99.454,57.422c-2.713,1.563-4.413,5.099-3.785,7.861l51.254,225.485
				c0.965,4.244,5.167,5.752,9.325,3.347l96.81-55.89c3.066-1.773,4.996-5.778,4.283-8.913l-51.562-226.84
				C257.509,87.161,254.415,86.05,251.349,87.823z"/>
			<g>
				<path style="fill:#263238;" d="M255.093,100.685l48.132,211.75c0.679,2.985-1.148,6.796-4.066,8.473l-89.659,51.766
					c-2.921,1.699-5.844,0.648-6.525-2.344l-48.461-213.196c-0.55-2.42,0.536-5.38,2.544-7.308c0.159-0.147,0.309-0.294,0.469-0.434
					c0.333-0.267,0.69-0.513,1.054-0.724l25.219-14.561c0,0,0.736-0.429,1.644-0.948c0.907-0.526,1.814-0.203,2.025,0.727
					c0.21,0.924,1.168,1.229,2.139,0.663l29.39-16.967c0.963-0.559,1.587-1.764,1.377-2.688c-0.197-0.866,0.287-1.962,1.091-2.533
					c0.055-0.04,0.112-0.072,0.169-0.104l24.669-14.238l0.525-0.307C250.525,95.582,254.237,96.919,255.093,100.685z"/>
				<path style="fill:#FAFAFA;" d="M297.737,320.225c2.917-1.677,4.744-5.488,4.066-8.473l-48.132-211.75
					c-0.313-1.377-1.011-2.425-1.947-3.102c-1.441-0.413-3.167-0.183-4.893,0.812l-0.525,0.307l-24.67,14.238
					c-0.056,0.032-0.113,0.065-0.168,0.104c-0.805,0.571-1.288,1.667-1.092,2.533c0.21,0.924-0.414,2.129-1.377,2.688l-29.39,16.967
					c-0.516,0.301-1.025,0.354-1.422,0.199c-0.284-0.111-1.232-0.599-1.475-0.703c-0.327-0.141-0.57-0.428-0.664-0.841
					c-0.02-0.09-0.053-0.169-0.085-0.247c-0.17,0.04-0.343,0.101-0.518,0.202c-0.908,0.519-1.644,0.948-1.644,0.948l-25.218,14.561
					c-0.365,0.21-0.721,0.457-1.054,0.724c-0.16,0.14-0.31,0.287-0.469,0.434c-2.008,1.928-3.094,4.888-2.544,7.308l48.461,213.196
					c0.236,1.037,0.745,1.835,1.426,2.372c1.097,0.252,2.387,0.04,3.676-0.71L297.737,320.225z"/>
				<g>
					<path style="fill:#263238;" d="M192.788,126.327l13.473-7.778c0.804-0.464,1.597-0.216,1.772,0.553
						c0.175,0.77-0.335,1.77-1.139,2.234l-13.473,7.778c-0.804,0.464-1.597,0.216-1.772-0.553
						C191.475,127.792,191.985,126.791,192.788,126.327z"/>
					<g>
						<path style="fill:#263238;" d="M213.045,113.993c0.906-0.523,1.81-0.197,2.02,0.727c0.21,0.924-0.354,2.097-1.259,2.62
							c-0.905,0.523-1.81,0.197-2.02-0.727C211.576,115.688,212.14,114.516,213.045,113.993z"/>
					</g>
				</g>
			</g>
			<g>
				<g>
					<path style="fill:#455A64;" d="M150.499,175.006c-0.354-1.558-2.071-3.335-3.835-3.97c-0.851-0.306-1.553-0.287-2.012-0.011
						c-0.324,0.195-1.608,0.911-1.946,1.114c-0.491,0.294-0.705,0.88-0.523,1.68l3.933,17.298c0.354,1.558,2.071,3.335,3.835,3.97
						c0.813,0.293,1.489,0.288,1.948,0.046c0.361-0.19,1.669-0.946,2.006-1.147c0.493-0.293,0.708-0.88,0.526-1.683L150.499,175.006
						z"/>
					<path style="fill:#37474F;" d="M148.571,176.118l3.933,17.298c0.354,1.558-0.789,2.306-2.552,1.671
						c-1.764-0.635-3.481-2.412-3.835-3.97l-3.933-17.298c-0.354-1.558,0.789-2.306,2.552-1.671
						C146.5,172.783,148.217,174.56,148.571,176.118z"/>
				</g>
				<g>
					<path style="fill:#455A64;" d="M157.382,205.281c-0.354-1.558-2.071-3.335-3.835-3.97c-0.851-0.306-1.553-0.287-2.012-0.01
						c-0.324,0.195-1.608,0.911-1.946,1.113c-0.491,0.294-0.705,0.88-0.523,1.681l3.933,17.298c0.354,1.558,2.071,3.335,3.835,3.97
						c0.813,0.293,1.489,0.288,1.948,0.046c0.361-0.19,1.669-0.946,2.006-1.147c0.493-0.293,0.708-0.88,0.526-1.683L157.382,205.281
						z"/>
					<path style="fill:#37474F;" d="M155.454,206.393l3.933,17.298c0.354,1.558-0.789,2.306-2.552,1.671
						c-1.764-0.635-3.481-2.412-3.835-3.97l-3.933-17.298c-0.354-1.558,0.789-2.306,2.552-1.671
						C153.383,203.059,155.1,204.836,155.454,206.393z"/>
				</g>
			</g>
		</g>
		<g id="Thumb">
			<path id="XMLID_00000083050273210807042030000007825839434334329773_" style="fill:#B16668;" d="M386.342,369.629
				c-7.674-16.671-16.756-39.6-22.876-60.154c-6.12-20.554-12.37-34.938-14.948-39.473c-3.538-6.223-9.199-13.406-19.801-17.85
				c-5.367-2.249-15.418-4.98-24.974-9.41c-9.642-4.469-19.239-9.942-24.605-12.881c-5.365-2.939-10.28,8.031-3.329,22.077
				c5.678,11.474,15.798,18.429,20.952,21.215c6.133,3.315,11.663,8.295,13.434,11.356c1.499,2.591,3.284,8.665,1.868,16.068
				c-1.956,10.223-12.698,45.24,20.831,64.829l13.23,28.74L386.342,369.629z"/>
			<path id="XMLID_00000053526960500184437280000013430467124677386894_" style="fill:#B16668;" d="M284.633,237.877
				c0,0,11.477,6.332,14.3,6.525c2.823,0.193,2.172-2.912,2.172-2.912l-0.014-0.009c-5.343-3.065-15.212-8.571-21.953-11.619
				C280.146,230.558,283.052,233.469,284.633,237.877z"/>
			<path id="XMLID_00000031912451070386183350000010907757017668655023_" style="opacity:0.6;fill:#FFFFFF;" d="M284.633,237.877
				c0,0,11.477,6.332,14.3,6.525c2.823,0.193,2.172-2.912,2.172-2.912l-0.014-0.009c-5.343-3.065-15.212-8.571-21.953-11.619
				C280.146,230.558,283.052,233.469,284.633,237.877z"/>
			<path id="XMLID_00000074417565686428114240000013090049948592777126_" style="fill:#9A4A4D;" d="M301.105,241.49l-0.014-0.009
				c0.014,0.009-1.174-0.763-1.725-0.985c1.356,2.098,0.206,3.889,0.206,3.889l0,0C301.681,244.074,301.105,241.49,301.105,241.49z"
				/>
		</g>
		<g id="Fingers">
			<g id="XMLID_00000085946078585012718530000006421975023602968484_">
				<g id="XMLID_00000047746824680146056740000001458528284922510269_">
					<path id="XMLID_4779_" style="fill:#B16668;" d="M152.906,231.386c-7.171-4.674-16.382-6.995-21.065-1.344
						c-4.683,5.651-2.266,16.368,2.516,20.867c7.34,6.906,26.812,16.842,26.812,16.842L152.906,231.386z"/>
					<path id="XMLID_4499_" style="opacity:0.5;fill:#9A4A4D;" d="M152.906,231.386c-0.807-0.526-1.64-1.019-2.488-1.477
						l-0.001,0.001c0,0,4.856,21.365,5.637,24.801c0.781,3.436-13.338-3.436-19.422-8.183c-5.879-4.587-7.103-10.149-7.179-10.52
						c-0.667,5.415,1.518,11.716,4.904,14.902c7.34,6.906,26.812,16.842,26.812,16.842L152.906,231.386z"/>
				</g>
				<g id="XMLID_4586_">
					<path id="XMLID_4713_" style="fill:#9A4A4D;" d="M167.264,366.601c4.003,4.278,18.756,10.479,18.756,10.479l-6.436-28.318
						L167.264,366.601z"/>
				</g>
				<g id="XMLID_4583_">
					<path id="XMLID_4585_" style="fill:#9A4A4D;" d="M149.245,291.27c4.222,4.513,19.785,11.054,19.785,11.054l-6.789-29.871
						L149.245,291.27z"/>
				</g>
				<g id="XMLID_4581_">
					<path id="XMLID_4582_" style="fill:#9A4A4D;" d="M154.733,318.401c5.815,6.391,20.68,12.017,20.68,12.017l-6.354-27.956
						L154.733,318.401z"/>
				</g>
			</g>
			<g id="XMLID_4488_">
				<path id="XMLID_4584_" style="fill:#B16668;" d="M149.569,263.903c7.232-2.352,11.844,0.008,15,6.253
					c1.194,2.363,2.163,6.318,2.591,11.398c0.428,5.08-2.894,12.038-9.098,12.519c-0.099,0.008-0.2,0.015-0.301,0.021
					c-10.063,0.629-12.347-4.335-14.259-12.75S143.135,265.996,149.569,263.903z"/>
				<path id="XMLID_4500_" style="opacity:0.5;fill:#9A4A4D;" d="M158.731,263.873c0.64,0.341,4.469,2.697,6.427,11.182
					c2.14,9.276-2.08,12.258-7.032,14.253c-4.952,1.995-12.612,0.371-13.669-4.279l-0.003,0.002
					c1.864,6.143,4.817,9.593,13.306,9.063c0.101-0.006,0.202-0.013,0.301-0.021c6.204-0.481,9.526-7.439,9.098-12.52
					c-0.428-5.08-1.396-9.035-2.591-11.398C163.02,267.092,161.118,264.969,158.731,263.873z"/>
			</g>
			<g id="XMLID_4494_">
				<path id="XMLID_4580_" style="fill:#B16668;" d="M156.461,293.453c6.606-2.149,10.819,0.007,13.702,5.712
					c1.091,2.158,1.976,5.771,2.366,10.412c0.391,4.641-2.644,10.996-8.311,11.436c-0.091,0.007-0.182,0.013-0.275,0.019
					c-9.192,0.574-11.279-3.96-13.026-11.646C149.171,301.699,150.584,295.364,156.461,293.453z"/>
				<path id="XMLID_4502_" style="opacity:0.5;fill:#9A4A4D;" d="M166.59,294.516c1.271,1.194,2.75,4.509,3.386,9.894
					c0.833,7.055,0.12,10.739-5.81,12.543c-6.143,1.869-10.638-0.15-11.988-3.043c1.732,4.877,4.568,7.571,11.767,7.122
					c0.093-0.006,0.184-0.012,0.275-0.019c5.667-0.44,8.701-6.796,8.311-11.436c-0.391-4.64-1.275-8.253-2.366-10.412
					C169.152,297.164,167.973,295.611,166.59,294.516z"/>
			</g>
			<g id="XMLID_4501_">
				<path id="XMLID_4587_" style="fill:#B16668;" d="M167.571,340.657c6.856-2.23,12.852-0.094,14.22,5.928l2.456,10.805
					c1.307,5.752-2.744,11.412-8.625,11.868c-0.094,0.007-0.189,0.014-0.285,0.02c-9.54,0.596-11.339-7.833-12.452-12.221
					C161.771,352.669,161.472,342.641,167.571,340.657z"/>
				<path id="XMLID_4572_" style="opacity:0.5;fill:#9A4A4D;" d="M176.839,340.573c3.787,2.506,4.075,9.292,5.3,15.77
					c0.85,4.494-0.631,8.716-6.724,10.101c-6.093,1.385-9.668-1.718-11.324-5.174l-0.006-0.007
					c1.461,4.094,4.301,8.449,11.251,8.015c0.096-0.006,0.191-0.013,0.285-0.02c5.881-0.456,9.932-6.116,8.625-11.868l-2.456-10.805
					C181.117,343.615,179.313,341.595,176.839,340.573z"/>
			</g>
		</g>
	</g>
</g>
<g id="Message_00000021118055820673613840000004759548604279355819_">
	<g id="Message">
		<g id="XMLID_423_">
			<path style="fill:#E0E0E0;" d="M191.046,259.305l71.6-41.338c2.38-1.374,3.793-4.763,3.155-7.569l-11.069-48.689
				c-0.638-2.806-3.085-3.966-5.465-2.592l-71.599,41.338c-2.381,1.374-3.793,4.763-3.155,7.569l11.069,48.689
				C186.219,259.519,188.666,260.68,191.046,259.305z"/>
			<path id="XMLID_465_" style="fill:#BA68C8;" d="M178.273,206.814c-0.189-0.831,0.318-1.887,1.133-2.357l75.459-43.566
				c0.815-0.471,2.289-0.559,3.292-0.198l2.048,0.737c1.004,0.361,1.971,1.328,2.16,2.159l11.624,51.13
				c0.188,0.828-0.322,1.889-1.133,2.357l-75.459,43.566c-0.811,0.469-2.293,0.557-3.292,0.198l-2.048-0.737
				c-0.999-0.36-1.971-1.331-2.16-2.159L178.273,206.814z"/>
			<path id="XMLID_464_" style="opacity:0.5;fill:#FFFFFF;" d="M178.273,206.814c-0.189-0.831,0.318-1.887,1.133-2.357
				l75.459-43.566c0.815-0.471,2.289-0.559,3.292-0.198l2.048,0.737c1.004,0.361,1.971,1.328,2.16,2.159l11.624,51.13
				c0.188,0.828-0.322,1.889-1.133,2.357l-75.459,43.566c-0.811,0.469-2.293,0.557-3.292,0.198l-2.048-0.737
				c-0.999-0.36-1.971-1.331-2.16-2.159L178.273,206.814z"/>
			<path id="XMLID_463_" style="fill:#BA68C8;" d="M186.453,208.377l-7.991-2.876c-0.205,0.426-0.284,0.898-0.19,1.313l11.624,51.13
				c0.188,0.828,1.16,1.8,2.16,2.159l2.048,0.737c1,0.36,2.481,0.271,3.292-0.198l0.83-0.479L186.453,208.377z"/>
			<path id="XMLID_461_" style="fill:#BA68C8;" d="M262.367,163.591l11.624,51.13c0.097,0.427,0.009,0.915-0.213,1.351
				c-0.182,0.357-0.442,0.683-0.769,0.911l-0.056,0.034c-0.034,0.022-0.061,0.044-0.096,0.062l-75.458,43.563l-0.011,0.006
				c-0.393,0.222-0.78,0.271-1.099,0.168c-0.346-0.112-0.61-0.396-0.708-0.828l-11.624-51.13c-0.188-0.828,0.517-1.399,1.588-1.265
				l36.929,4.544l4.836,0.595c1.07,0.129,2.305-0.342,2.759-1.056l4.025-6.249l27.099-42.054
				C261.649,162.663,262.178,162.758,262.367,163.591z"/>
			<path id="XMLID_503_" style="opacity:0.2;fill:#FFFFFF;" d="M262.367,163.591l11.624,51.13c0.097,0.427,0.009,0.915-0.213,1.351
				c-0.182,0.357-0.442,0.683-0.769,0.911l-0.056,0.034c-0.034,0.022-0.061,0.044-0.096,0.062l-75.458,43.563l-0.011,0.006
				c-0.393,0.222-0.78,0.271-1.099,0.168c-0.346-0.112-0.61-0.396-0.708-0.828l-11.624-51.13c-0.188-0.828,0.517-1.399,1.588-1.265
				l36.929,4.544l4.836,0.595c1.07,0.129,2.305-0.342,2.759-1.056l4.025-6.249l27.099-42.054
				C261.649,162.663,262.178,162.758,262.367,163.591z"/>
			<path id="XMLID_459_" style="fill:#BA68C8;" d="M272.857,217.078c0.035-0.017,0.062-0.039,0.096-0.062l0.056-0.034
				c0.327-0.228,0.587-0.554,0.769-0.911c0.218-0.428,0.305-0.907,0.216-1.329l-39.899-9.317l29.204,17.171L272.857,217.078z"/>
			<path id="XMLID_456_" style="fill:#BA68C8;" d="M272.857,217.078c0.035-0.017,0.062-0.039,0.096-0.062l0.056-0.034
				c0.327-0.228,0.587-0.554,0.769-0.911c0.218-0.428,0.305-0.907,0.216-1.329l-39.899-9.317l29.204,17.171L272.857,217.078z"/>
			<path id="XMLID_494_" style="opacity:0.2;" d="M272.857,217.078c0.035-0.017,0.062-0.039,0.096-0.062l0.056-0.034
				c0.327-0.228,0.587-0.554,0.769-0.911c0.218-0.428,0.305-0.907,0.216-1.329l-39.899-9.317l29.204,17.171L272.857,217.078z"/>
			<path id="XMLID_455_" style="fill:#BA68C8;" d="M195.58,259.987c0.098,0.432,0.362,0.716,0.708,0.828
				c0.319,0.103,0.706,0.054,1.099-0.168l0.011-0.006l25.98-14.998l-0.906-33.507l-27.086,47.002L195.58,259.987z"/>
			<path id="XMLID_451_" style="fill:#BA68C8;" d="M195.58,259.987c0.098,0.432,0.362,0.716,0.708,0.828
				c0.319,0.103,0.706,0.054,1.099-0.168l0.011-0.006l25.98-14.998l-0.906-33.507l-27.086,47.002L195.58,259.987z"/>
			<path id="XMLID_495_" style="opacity:0.2;" d="M195.58,259.987c0.098,0.432,0.362,0.716,0.708,0.828
				c0.319,0.103,0.706,0.054,1.099-0.168l0.011-0.006l25.98-14.998l-0.906-33.507l-27.086,47.002L195.58,259.987z"/>
			<path id="XMLID_424_" style="fill:#BA68C8;" d="M273.778,216.072c-0.182,0.357-0.442,0.683-0.769,0.911l-0.056,0.034
				l-75.554,43.624l-0.011,0.006c-0.393,0.222-0.78,0.271-1.099,0.168l28.733-53.412c1.191-2.214,4.381-3.237,7.49-2.403
				L273.778,216.072z"/>
			<path id="XMLID_506_" style="opacity:0.2;fill:#FFFFFF;" d="M273.778,216.072c-0.182,0.357-0.442,0.683-0.769,0.911l-0.056,0.034
				l-75.554,43.624l-0.011,0.006c-0.393,0.222-0.78,0.271-1.099,0.168l28.733-53.412c1.191-2.214,4.381-3.237,7.49-2.403
				L273.778,216.072z"/>
		</g>
		<path id="XMLID_420_" style="fill:#BA68C8;" d="M184.363,207.595l41.362,11.099c3.078,0.826,6.237-0.189,7.413-2.382
			l28.641-53.414L184.363,207.595z"/>
		<path id="XMLID_462_" style="opacity:0.2;" d="M184.363,207.595l41.362,11.099c3.078,0.826,6.237-0.189,7.413-2.382l28.641-53.414
			L184.363,207.595z"/>
		<path id="XMLID_419_" style="fill:#BA68C8;" d="M184.363,207.595l41.18,9.101c2.932,0.648,5.841-0.342,7.002-2.384l29.234-51.414
			L184.363,207.595z"/>
		<path id="XMLID_508_" style="opacity:0.2;fill:#FFFFFF;" d="M184.363,207.595l41.18,9.101c2.932,0.648,5.841-0.342,7.002-2.384
			l29.234-51.414L184.363,207.595z"/>
	</g>
</g>
<g id="Button_00000065795029434317083590000015432923407723198653_">
	<g id="Button">
		<path style="fill:#E0E0E0;" d="M217.205,302.292l47.16-27.228c1.568-0.905,2.498-3.137,2.078-4.985l-5.236-22.967
			c-0.42-1.848-2.032-2.612-3.6-1.707l-47.16,27.228c-1.568,0.905-2.498,3.137-2.078,4.985l5.236,22.966
			C214.025,302.433,215.637,303.198,217.205,302.292z"/>
		<g>
			<path style="fill:#263238;" d="M273.624,271.309l-4.628-20.131c-0.569-2.502-2.295-3.098-3.833-3.652
				c-1.538-0.553-3.921-0.802-5.695,0.223l-45.431,26.229c-1.774,1.024-2.879,3.323-2.467,5.135l4.628,20.132
				c0.412,1.811,2.089,2.793,3.627,3.346c1.538,0.554,4.127,1.107,5.902,0.083l45.431-26.23
				C272.931,275.419,274.197,273.831,273.624,271.309z"/>
			<path style="fill:#37474F;" d="M273.624,271.308l-4.628-20.131c-0.569-2.502-2.295-3.098-3.833-3.652
				c-1.538-0.553-3.921-0.802-5.695,0.223l-45.431,26.229c-0.84,0.485-1.521,1.259-1.972,2.128l5.837,2.938l2.574-0.445l5.25,24.074
				l45.431-26.23C272.931,275.419,274.197,273.831,273.624,271.308z"/>
			<path style="fill:#BA68C8;" d="M265.125,250.558l-45.561,26.306c-1.243,0.716-2.022,2.336-1.734,3.601l4.448,19.341
				c0.442,1.944,2.367,2.635,4.272,1.534l44.35-25.604c1.405-0.812,2.289-2.647,1.962-4.083l-4.59-19.962
				C267.947,250.255,266.53,249.746,265.125,250.558z"/>
			<path style="fill:#455A64;" d="M265.125,250.558l-45.561,26.306c-1.243,0.716-2.022,2.336-1.734,3.601l4.448,19.341
				c0.442,1.944,2.367,2.635,4.272,1.534l44.35-25.604c1.405-0.812,2.289-2.647,1.962-4.083l-4.59-19.962
				C267.947,250.255,266.53,249.746,265.125,250.558z"/>
		</g>
		<g>
			<path style="fill:#FAFAFA;" d="M229.272,277.598c0.667-0.386,1.283-0.603,1.847-0.653c0.563-0.049,1.056,0.011,1.478,0.182
				c0.422,0.171,0.771,0.426,1.045,0.766c0.275,0.34,0.467,0.701,0.577,1.083c0.046,0.157,0.038,0.311-0.022,0.462
				c-0.062,0.15-0.147,0.258-0.258,0.321l-1.046,0.604c-0.17,0.098-0.306,0.128-0.41,0.087c-0.106-0.038-0.21-0.112-0.313-0.221
				c-0.226-0.253-0.519-0.417-0.881-0.493c-0.361-0.075-0.841,0.059-1.438,0.404c-0.259,0.15-0.498,0.329-0.714,0.54
				c-0.217,0.209-0.397,0.436-0.539,0.679c-0.143,0.243-0.24,0.495-0.294,0.756c-0.053,0.261-0.051,0.521,0.008,0.778
				c0.071,0.312,0.176,0.539,0.316,0.682c0.139,0.141,0.337,0.219,0.594,0.232c0.256,0.014,0.583-0.026,0.979-0.117
				c0.396-0.091,0.888-0.214,1.472-0.366c0.638-0.17,1.201-0.26,1.688-0.273c0.488-0.013,0.906,0.068,1.256,0.242
				c0.35,0.174,0.641,0.439,0.874,0.796c0.233,0.357,0.413,0.812,0.539,1.368c0.139,0.61,0.168,1.234,0.088,1.872
				c-0.081,0.638-0.264,1.249-0.547,1.834c-0.283,0.587-0.671,1.143-1.159,1.67c-0.489,0.528-1.067,0.984-1.735,1.37
				c-0.558,0.323-1.112,0.538-1.662,0.648c-0.55,0.111-1.061,0.107-1.533-0.012c-0.473-0.118-0.884-0.353-1.234-0.703
				c-0.35-0.35-0.608-0.815-0.773-1.395c-0.047-0.157-0.04-0.31,0.022-0.461c0.061-0.15,0.147-0.257,0.257-0.321l1.046-0.604
				c0.169-0.098,0.308-0.133,0.416-0.103c0.108,0.03,0.211,0.109,0.308,0.236c0.11,0.137,0.235,0.264,0.375,0.383
				c0.139,0.119,0.31,0.197,0.51,0.235c0.199,0.037,0.437,0.027,0.711-0.032c0.274-0.058,0.601-0.197,0.979-0.415
				c0.3-0.173,0.581-0.37,0.846-0.592c0.265-0.223,0.487-0.466,0.663-0.728c0.177-0.264,0.306-0.537,0.388-0.823
				c0.082-0.285,0.087-0.583,0.017-0.895c-0.068-0.298-0.194-0.501-0.376-0.612c-0.183-0.109-0.432-0.149-0.747-0.121
				c-0.314,0.028-0.695,0.102-1.141,0.222c-0.446,0.12-0.965,0.243-1.556,0.369c-0.536,0.125-1.015,0.183-1.44,0.175
				c-0.424-0.007-0.796-0.104-1.114-0.289c-0.318-0.184-0.587-0.462-0.807-0.835c-0.22-0.371-0.4-0.862-0.539-1.473
				c-0.139-0.61-0.167-1.231-0.085-1.861c0.082-0.631,0.256-1.23,0.521-1.797c0.266-0.568,0.617-1.096,1.052-1.585
				C228.217,278.325,228.713,277.92,229.272,277.598z"/>
			<path style="fill:#FAFAFA;" d="M245.042,281.956c0.109-0.063,0.216-0.063,0.321-0.001c0.104,0.062,0.173,0.168,0.207,0.318
				l0.328,1.444c0.034,0.15,0.023,0.302-0.032,0.455c-0.055,0.155-0.137,0.264-0.247,0.327l-6.563,3.789
				c-0.109,0.063-0.217,0.064-0.321,0.001c-0.104-0.062-0.173-0.168-0.207-0.318l-2.987-13.142
				c-0.034-0.149-0.023-0.301,0.032-0.456c0.054-0.155,0.137-0.264,0.246-0.327l6.443-3.72c0.11-0.063,0.216-0.063,0.321-0.001
				c0.105,0.063,0.174,0.168,0.207,0.318l0.328,1.444c0.035,0.15,0.024,0.301-0.032,0.456c-0.055,0.155-0.137,0.264-0.246,0.327
				l-4.829,2.787l0.735,3.234l4.5-2.598c0.11-0.063,0.217-0.063,0.321,0c0.104,0.062,0.173,0.168,0.207,0.317l0.328,1.444
				c0.034,0.149,0.023,0.302-0.032,0.455c-0.055,0.155-0.137,0.264-0.247,0.327l-4.5,2.598l0.768,3.378L245.042,281.956z"/>
			<path style="fill:#FAFAFA;" d="M254.663,279.278c-0.17,0.098-0.313,0.112-0.431,0.042c-0.117-0.07-0.203-0.128-0.259-0.172
				l-6.109-6.047l1.906,8.382c0.033,0.15,0.023,0.301-0.032,0.455c-0.055,0.155-0.137,0.264-0.246,0.327l-1.211,0.7
				c-0.11,0.063-0.217,0.064-0.321,0.001c-0.105-0.061-0.173-0.168-0.207-0.318l-2.988-13.141c-0.034-0.15-0.023-0.301,0.032-0.456
				c0.054-0.155,0.137-0.264,0.246-0.327l1.047-0.604c0.169-0.098,0.313-0.111,0.43-0.041c0.118,0.07,0.204,0.128,0.259,0.173
				l6.11,6.046l-1.906-8.382c-0.034-0.149-0.024-0.301,0.032-0.455c0.055-0.155,0.137-0.264,0.246-0.328l1.212-0.699
				c0.109-0.063,0.216-0.063,0.321-0.001c0.105,0.063,0.174,0.168,0.207,0.318l2.988,13.142c0.034,0.15,0.023,0.302-0.032,0.456
				c-0.055,0.155-0.137,0.263-0.246,0.326L254.663,279.278z"/>
			<path style="fill:#FAFAFA;" d="M259.304,260.488c0.737-0.425,1.407-0.662,2.01-0.712c0.604-0.049,1.143,0.066,1.618,0.344
				c0.475,0.277,0.887,0.707,1.24,1.286c0.352,0.579,0.645,1.285,0.879,2.116c0.268,0.982,0.496,1.985,0.685,3.011
				c0.154,0.878,0.213,1.718,0.176,2.522c-0.037,0.804-0.18,1.553-0.427,2.249c-0.248,0.695-0.609,1.33-1.082,1.902
				c-0.473,0.572-1.069,1.065-1.786,1.479l-3.767,2.175c-0.109,0.063-0.217,0.064-0.321,0.001c-0.105-0.062-0.173-0.168-0.207-0.318
				l-2.988-13.142c-0.034-0.149-0.024-0.301,0.032-0.456c0.055-0.155,0.137-0.264,0.247-0.327L259.304,260.488z M263.031,264.688
				c-0.119-0.422-0.272-0.79-0.462-1.102c-0.189-0.313-0.418-0.548-0.685-0.71c-0.268-0.16-0.574-0.229-0.918-0.206
				s-0.73,0.157-1.159,0.404l-2.003,1.157l2.081,9.155l2.078-1.2c0.409-0.237,0.745-0.519,1.008-0.847
				c0.264-0.329,0.464-0.686,0.602-1.072c0.138-0.386,0.215-0.8,0.234-1.24c0.019-0.441-0.012-0.883-0.09-1.329
				C263.528,266.673,263.3,265.67,263.031,264.688z"/>
		</g>
	</g>
</g>
<g id="Lines_00000165925832980836406050000014968321691130544262_">
	<path id="Lines" style="fill:#F5F5F5;" d="M287.847,130.744c0.171,0.418,0.452,0.775,0.816,1.035
		c0.669,0.477,1.524,0.576,2.284,0.265l36.178-14.8c0.587-0.239,1.047-0.694,1.292-1.28c0.245-0.585,0.248-1.232,0.007-1.821
		c-0.159-0.389-0.409-0.717-0.742-0.975l-0.076-0.056c-0.67-0.477-1.524-0.577-2.283-0.268l-36.178,14.798
		c-0.588,0.241-1.047,0.695-1.293,1.28C287.609,129.507,287.606,130.154,287.847,130.744z M88.835,209.387
		c0.171,0.418,0.452,0.775,0.816,1.035c0.669,0.477,1.524,0.576,2.284,0.265l36.179-14.799c0.587-0.24,1.047-0.694,1.292-1.28
		c0.245-0.585,0.248-1.232,0.007-1.821c-0.159-0.389-0.409-0.717-0.741-0.975l-0.076-0.056c-0.67-0.477-1.524-0.577-2.283-0.268
		l-36.178,14.798c-0.588,0.241-1.047,0.695-1.293,1.28C88.597,208.15,88.594,208.797,88.835,209.387z M272.19,89.034
		c0.033,0.633,0.31,1.217,0.781,1.643l0.074,0.064c0.982,0.819,2.424,0.717,3.283-0.233l26.207-29.002
		c0.426-0.471,0.643-1.081,0.611-1.714c-0.032-0.633-0.309-1.217-0.781-1.644l-0.074-0.064c-0.982-0.819-2.424-0.716-3.283,0.234
		L272.801,87.32C272.376,87.792,272.159,88.401,272.19,89.034z M230.872,70.205c-0.081,0.882,0.331,1.731,1.077,2.215
		c0.323,0.21,0.684,0.335,1.072,0.37c0.632,0.058,1.25-0.133,1.738-0.54c0.488-0.405,0.789-0.976,0.847-1.609l3.589-38.923
		c0.077-0.843-0.305-1.673-0.997-2.163l-0.078-0.053c-0.325-0.211-0.687-0.336-1.072-0.372c-1.307-0.12-2.468,0.844-2.587,2.148
		L230.872,70.205z M174.428,51.297l9.255,37.975c0.107,0.438,0.334,0.834,0.656,1.145c0.591,0.571,1.419,0.796,2.218,0.602
		c0.616-0.15,1.137-0.531,1.467-1.074c0.33-0.544,0.429-1.183,0.279-1.8l-9.255-37.977c-0.1-0.408-0.298-0.77-0.589-1.075
		l-0.067-0.067c-0.591-0.572-1.421-0.797-2.219-0.604c-0.616,0.15-1.136,0.532-1.466,1.074
		C174.376,50.041,174.277,50.68,174.428,51.297z M109.595,89.479c-0.717,0.967-0.604,2.317,0.263,3.138
		c0.07,0.066,0.144,0.129,0.226,0.19l31.375,23.312c0.51,0.378,1.138,0.536,1.766,0.444c0.628-0.093,1.182-0.424,1.559-0.933
		c0.505-0.682,0.609-1.588,0.272-2.368c-0.127-0.294-0.309-0.555-0.541-0.775c-0.068-0.065-0.142-0.127-0.219-0.185L112.92,88.991
		c-0.511-0.379-1.138-0.536-1.766-0.444C110.526,88.64,109.972,88.972,109.595,89.479z M117.221,149.904
		c-0.136-0.249-0.314-0.471-0.529-0.658c-0.422-0.367-0.942-0.569-1.504-0.582l-39.08-0.906c-0.633-0.014-1.235,0.219-1.694,0.658
		c-0.46,0.439-0.721,1.03-0.735,1.666c-0.016,0.708,0.282,1.382,0.819,1.849c0.423,0.368,0.942,0.569,1.503,0.582l39.08,0.905
		c0.634,0.015,1.237-0.218,1.696-0.656c0.46-0.439,0.721-1.03,0.735-1.667C117.522,150.682,117.421,150.27,117.221,149.904z"/>
</g>
<g id="Paper_Planes">
	<g id="Paper_Plane_00000155143326359432712580000014423743696213121165_">
		<g id="XMLID_00000144307593156711888250000004292936838122334853_">
			<polygon id="XMLID_00000039852430452484798360000013793487899505145527_" style="fill:#BA68C8;" points="80.861,313.014 
				128.575,284.809 95.454,321.637 			"/>
			<polygon id="XMLID_00000065056331247558321190000003791273931474720441_" style="opacity:0.2;fill:#FFFFFF;" points="
				80.861,313.014 128.575,284.809 95.454,321.637 			"/>
			<polygon id="XMLID_00000074436789218940744810000004584471955753164214_" style="fill:#BA68C8;" points="128.575,284.809 
				75.274,307.09 60.681,298.466 			"/>
			<polygon id="XMLID_00000112628899502156828800000001268802612486556849_" style="opacity:0.2;fill:#FFFFFF;" points="
				128.575,284.809 75.274,307.09 60.681,298.466 			"/>
			<polygon id="XMLID_00000054256371411726939100000015799476297728120506_" style="fill:#BA68C8;" points="75.274,307.09 
				78.523,320.814 80.861,313.014 128.575,284.809 			"/>
			<polygon id="XMLID_00000173860190483542915280000018301545068942114476_" style="opacity:0.2;" points="75.274,307.09 
				78.523,320.814 80.861,313.014 128.575,284.809 			"/>
			<polygon id="XMLID_00000021801423010702734850000011321768125982270094_" style="fill:#BA68C8;" points="78.523,320.814 
				85.725,315.888 80.861,313.014 			"/>
			<polygon id="XMLID_00000081610091619502510910000017455719595403592332_" style="opacity:0.2;" points="80.861,313.014 
				85.725,315.888 84.576,316.674 			"/>
		</g>
		<g id="XMLID_00000130645751197552862800000012125538787487642802_">
			<g>
				<path style="fill:#E0E0E0;" d="M66.935,325.039c-0.25,0-0.5-0.1-0.684-0.296c-0.355-0.378-0.336-0.972,0.042-1.325
					c0.962-0.902,1.932-1.747,2.879-2.51c0.401-0.322,0.992-0.264,1.318,0.142c0.325,0.404,0.262,0.994-0.142,1.318
					c-0.912,0.734-1.844,1.548-2.772,2.417C67.395,324.956,67.166,325.039,66.935,325.039z"/>
			</g>
			<g>
				<path style="fill:#E0E0E0;" d="M137.025,432.378c-1.854-0.001-3.679-0.031-5.475-0.091c-0.518-0.018-0.923-0.452-0.907-0.969
					c0.019-0.516,0.411-0.879,0.969-0.906c2.396,0.081,4.842,0.108,7.341,0.081c0.003,0,0.007,0,0.01,0
					c0.513,0,0.932,0.414,0.938,0.928c0.006,0.517-0.41,0.942-0.928,0.947C138.322,432.374,137.671,432.378,137.025,432.378z
					 M145.111,432.186c-0.497,0-0.912-0.392-0.935-0.894c-0.025-0.517,0.375-0.957,0.893-0.98c2.401-0.113,4.866-0.28,7.329-0.495
					c0.515-0.015,0.971,0.337,1.017,0.853c0.045,0.516-0.337,0.97-0.853,1.017c-2.488,0.217-4.98,0.385-7.405,0.498
					C145.141,432.186,145.126,432.186,145.111,432.186z M125.438,431.958c-0.023,0-0.046,0-0.07-0.003
					c-2.477-0.182-4.965-0.43-7.393-0.736c-0.514-0.065-0.878-0.535-0.813-1.048c0.066-0.515,0.535-0.867,1.048-0.814
					c2.396,0.303,4.85,0.547,7.295,0.728c0.517,0.038,0.905,0.487,0.867,1.003C126.337,431.583,125.924,431.958,125.438,431.958z
					 M158.599,431.056c-0.468,0-0.874-0.349-0.93-0.827c-0.061-0.513,0.306-0.98,0.82-1.041c2.389-0.285,4.839-0.622,7.282-1.001
					c0.5-0.087,0.99,0.27,1.07,0.784c0.079,0.512-0.272,0.991-0.784,1.07c-2.464,0.382-4.936,0.721-7.348,1.009
					C158.674,431.054,158.636,431.056,158.599,431.056z M172.195,428.997c-0.492,0.067-0.956-0.265-1.047-0.759
					c-0.094-0.509,0.243-0.999,0.752-1.092c2.364-0.437,4.784-0.935,7.194-1.482c0.508-0.084,1.007,0.203,1.123,0.708
					c0.115,0.505-0.203,1.007-0.708,1.123c-2.436,0.552-4.882,1.055-7.27,1.495C172.225,428.993,172.21,428.995,172.195,428.997z
					 M185.406,426.053c-0.464,0.063-0.913-0.228-1.033-0.694c-0.13-0.5,0.17-1.012,0.672-1.143c2.328-0.606,4.71-1.271,7.08-1.976
					c0.483-0.154,1.017,0.134,1.166,0.632c0.148,0.496-0.135,1.018-0.632,1.166c-2.39,0.712-4.793,1.382-7.144,1.993
					C185.48,426.042,185.442,426.048,185.406,426.053z M198.774,422.187c-0.463,0.072-0.917-0.212-1.045-0.675
					c-0.139-0.498,0.152-1.015,0.652-1.155c2.317-0.647,4.687-1.355,7.044-2.102c0.48-0.163,1.019,0.116,1.177,0.611
					c0.156,0.494-0.117,1.021-0.611,1.177c-2.377,0.754-4.768,1.467-7.107,2.12C198.848,422.175,198.811,422.182,198.774,422.187z
					 M112.011,430.32c-0.053,0-0.108-0.004-0.161-0.014c-2.48-0.43-4.932-0.928-7.288-1.48c-0.504-0.117-0.818-0.622-0.699-1.127
					c0.119-0.502,0.628-0.812,1.128-0.699c2.319,0.543,4.735,1.033,7.178,1.458c0.511,0.089,0.853,0.575,0.765,1.084
					C112.854,429.999,112.459,430.32,112.011,430.32z M98.825,427.294c-0.086,0-0.173-0.012-0.261-0.037
					c-2.404-0.696-4.784-1.474-7.077-2.312c-0.486-0.178-0.737-0.715-0.558-1.203c0.175-0.486,0.713-0.743,1.203-0.558
					c2.252,0.822,4.593,1.586,6.955,2.271c0.498,0.145,0.785,0.665,0.64,1.162C99.607,427.028,99.232,427.294,98.825,427.294z
					 M86.099,422.721c-0.126,0-0.253-0.025-0.374-0.078c-2.304-1.003-4.563-2.091-6.716-3.235c-0.457-0.243-0.631-0.811-0.388-1.27
					c0.244-0.454,0.811-0.628,1.27-0.388c2.107,1.121,4.323,2.188,6.582,3.172c0.475,0.206,0.692,0.759,0.486,1.234
					C86.804,422.511,86.46,422.721,86.099,422.721z M74.119,416.442c-0.169,0-0.341-0.046-0.497-0.143
					c-2.138-1.339-4.204-2.767-6.141-4.245c-0.411-0.314-0.49-0.902-0.176-1.315c0.314-0.409,0.9-0.491,1.315-0.176
					c1.892,1.443,3.909,2.838,5.999,4.147c0.438,0.274,0.572,0.853,0.296,1.293C74.738,416.286,74.432,416.442,74.119,416.442z
					 M63.319,408.316c-0.225,0-0.451-0.08-0.629-0.242c-1.875-1.698-3.647-3.486-5.265-5.318c-0.343-0.388-0.306-0.981,0.082-1.324
					c0.388-0.341,0.979-0.309,1.324,0.082c1.571,1.78,3.294,3.518,5.118,5.168c0.383,0.348,0.414,0.942,0.067,1.326
					C63.83,408.212,63.575,408.316,63.319,408.316z M54.297,398.263c-0.294,0-0.582-0.137-0.764-0.392
					c-1.482-2.075-2.806-4.226-3.935-6.395c-0.239-0.459-0.06-1.025,0.4-1.265c0.461-0.239,1.025-0.059,1.265,0.4
					c1.087,2.09,2.364,4.166,3.796,6.169c0.302,0.422,0.203,1.007-0.217,1.309C54.675,398.207,54.485,398.263,54.297,398.263z
					 M47.956,386.353c-0.385,0-0.745-0.238-0.883-0.621c-0.648-1.807-1.171-3.634-1.551-5.431c-0.132-0.622-0.251-1.242-0.356-1.863
					c-0.086-0.51,0.259-0.995,0.77-1.081c0.5-0.085,0.994,0.258,1.081,0.77c0.1,0.594,0.213,1.189,0.34,1.785
					c0.363,1.715,0.861,3.459,1.482,5.187c0.175,0.487-0.079,1.024-0.567,1.2C48.169,386.335,48.061,386.353,47.956,386.353z
					 M45.466,373.104c-0.504,0-0.92-0.399-0.938-0.905c-0.02-0.599-0.031-1.197-0.031-1.792c0-1.877,0.109-3.8,0.323-5.717
					c0.059-0.516,0.541-0.882,1.038-0.827c0.515,0.057,0.884,0.521,0.827,1.037c-0.207,1.847-0.313,3.699-0.313,5.507
					c0,0.573,0.011,1.149,0.031,1.727c0.018,0.517-0.388,0.953-0.905,0.971C45.488,373.104,45.477,373.104,45.466,373.104z
					 M46.79,359.671c-0.07,0-0.141-0.007-0.21-0.023c-0.505-0.116-0.82-0.618-0.706-1.123c0.545-2.382,1.259-4.799,2.12-7.185
					c0.175-0.487,0.711-0.741,1.2-0.564c0.487,0.175,0.74,0.712,0.564,1.2c-0.835,2.316-1.526,4.66-2.054,6.967
					C47.604,359.377,47.218,359.671,46.79,359.671z M51.233,346.91c-0.134,0-0.27-0.029-0.399-0.089
					c-0.47-0.22-0.67-0.779-0.45-1.248c1.046-2.225,2.228-4.444,3.516-6.597c0.266-0.443,0.841-0.59,1.287-0.323
					c0.445,0.266,0.588,0.842,0.323,1.287c-1.257,2.098-2.411,4.262-3.429,6.431C51.923,346.711,51.586,346.91,51.233,346.91z
					 M58.08,335.25c-0.188,0-0.378-0.056-0.543-0.175c-0.422-0.3-0.52-0.886-0.219-1.308c1.459-2.043,3.021-4.016,4.644-5.861
					c0.343-0.388,0.934-0.428,1.324-0.085c0.389,0.343,0.427,0.935,0.085,1.324c-1.581,1.798-3.104,3.72-4.527,5.711
					C58.662,335.114,58.374,335.25,58.08,335.25z"/>
			</g>
		</g>
	</g>
	<g id="Paper_Plane_00000039850744295183196580000002878973702924756655_">
		<polygon id="XMLID_00000080204988798178041860000005547245601653884586_" style="fill:#BA68C8;" points="379.789,291.446 
			433.473,258.828 456.592,266.858 		"/>
		<polygon id="XMLID_00000094581950922111764020000017957577250586846601_" style="opacity:0.2;fill:#FFFFFF;" points="
			379.789,291.446 433.473,258.828 456.592,266.858 		"/>
		<polygon id="XMLID_00000127751074376477567160000015487507760703768708_" style="fill:#BA68C8;" points="379.789,291.446 
			426.398,254.409 416.518,242.441 		"/>
		<polygon id="XMLID_00000171703590016949982390000012333794000613417884_" style="opacity:0.2;fill:#FFFFFF;" points="
			379.789,291.446 426.398,254.409 416.518,242.441 		"/>
		<polygon id="XMLID_00000102516154537143708790000013466995995884910755_" style="fill:#BA68C8;" points="426.398,254.409 
			426.188,263.255 379.789,291.446 		"/>
		<polygon id="XMLID_00000137096016047657331050000011155783745239109022_" style="opacity:0.2;" points="426.398,254.409 
			426.188,263.255 379.789,291.446 		"/>
		<g id="XMLID_00000135680657670727095520000015355280546762730168_">
			<path style="fill:#E0E0E0;" d="M442.165,241.195c-0.131-0.005-0.262-0.037-0.387-0.099c-0.463-0.232-0.65-0.796-0.418-1.259
				c1.084-2.159,2.002-4.451,2.731-6.813c0.151-0.493,0.671-0.779,1.172-0.619c0.495,0.152,0.772,0.676,0.619,1.172
				c-0.758,2.46-1.715,4.85-2.845,7.102C442.866,241.016,442.519,241.207,442.165,241.195z M446.394,228.155
				c-0.041-0.001-0.083-0.006-0.124-0.013c-0.512-0.087-0.855-0.57-0.768-1.081c0.35-2.064,0.566-4.189,0.642-6.317
				c0.012-0.334,0.02-0.671,0.025-1.007c0.008-0.519,0.435-0.931,0.952-0.923c0.007,0,0.014,0.001,0.019,0.001
				c0.509,0.018,0.913,0.441,0.904,0.952c-0.006,0.35-0.014,0.698-0.027,1.045c-0.079,2.21-0.303,4.419-0.667,6.562
				C447.272,227.843,446.857,228.171,446.394,228.155z M433.863,252.169c-0.032-0.025-0.064-0.053-0.093-0.083
				c-0.365-0.369-0.361-0.962,0.008-1.326c1.489-1.471,2.906-3.07,4.211-4.753c0.205-0.264,0.408-0.533,0.609-0.803
				c0.309-0.417,0.897-0.501,1.312-0.193c0.005,0.004,0.011,0.008,0.015,0.012c0.402,0.312,0.483,0.891,0.178,1.301
				c-0.209,0.28-0.419,0.558-0.632,0.833c-1.355,1.748-2.827,3.41-4.375,4.937C434.757,252.429,434.229,252.453,433.863,252.169z
				 M446.783,214.445c-0.458-0.017-0.847-0.368-0.897-0.837c-0.261-2.419-0.704-4.855-1.318-7.242
				c-0.13-0.502,0.173-1.013,0.675-1.142c0.505-0.13,1.013,0.173,1.142,0.675c0.635,2.473,1.095,4.999,1.366,7.508
				c0.055,0.516-0.316,0.978-0.832,1.033C446.873,214.446,446.828,214.447,446.783,214.445z M443.531,201.122
				c-0.363-0.013-0.702-0.238-0.84-0.598c-0.881-2.272-1.934-4.514-3.133-6.669c-0.251-0.452-0.089-1.023,0.364-1.275
				c0.453-0.251,1.023-0.089,1.275,0.364c1.24,2.229,2.331,4.55,3.242,6.902c0.188,0.482-0.052,1.027-0.535,1.213
				C443.781,201.106,443.655,201.126,443.531,201.122z M437.005,189.053c-0.281-0.01-0.555-0.146-0.73-0.394
				c-1.407-1.975-2.973-3.9-4.657-5.721c-0.351-0.38-0.327-0.973,0.053-1.326c0.38-0.354,0.972-0.327,1.326,0.053
				c1.737,1.879,3.354,3.866,4.806,5.907c0.3,0.422,0.201,1.007-0.22,1.307C437.408,189.005,437.204,189.061,437.005,189.053z
				 M427.805,178.869c-0.21-0.008-0.418-0.085-0.587-0.234c-1.103-0.974-2.256-1.926-3.427-2.829
				c-0.776-0.599-1.571-1.185-2.379-1.759c-0.422-0.299-0.523-0.885-0.222-1.307c0.299-0.422,0.883-0.527,1.307-0.222
				c0.83,0.589,1.643,1.189,2.439,1.802c1.204,0.928,2.39,1.907,3.523,2.909c0.388,0.343,0.425,0.936,0.082,1.324
				C428.348,178.773,428.075,178.879,427.805,178.869z M416.683,170.807c-0.153-0.006-0.307-0.048-0.447-0.132
				c-2.06-1.236-4.255-2.431-6.522-3.551c-0.464-0.23-0.655-0.792-0.426-1.257c0.233-0.465,0.794-0.652,1.257-0.426
				c2.313,1.143,4.551,2.363,6.656,3.624c0.444,0.267,0.589,0.843,0.323,1.287C417.34,170.656,417.013,170.819,416.683,170.807z
				 M404.409,164.622c-0.111-0.004-0.223-0.027-0.331-0.073c-2.24-0.945-4.578-1.843-6.948-2.667
				c-0.49-0.17-0.748-0.706-0.579-1.194c0.169-0.491,0.708-0.742,1.194-0.579c2.409,0.838,4.785,1.751,7.061,2.712
				c0.478,0.201,0.701,0.752,0.5,1.228C405.152,164.419,404.787,164.635,404.409,164.622z M391.449,160.025
				c-0.076-0.003-0.154-0.015-0.232-0.037c-2.329-0.687-4.753-1.33-7.209-1.91c-0.504-0.119-0.816-0.625-0.697-1.129
				c0.119-0.505,0.63-0.819,1.129-0.697c2.488,0.588,4.948,1.24,7.309,1.936c0.496,0.148,0.78,0.669,0.634,1.166
				C392.259,159.772,391.868,160.04,391.449,160.025z M315.95,157.153c-0.417-0.015-0.788-0.308-0.882-0.735
				c-0.112-0.505,0.208-1.006,0.713-1.118c2.411-0.532,4.908-1.005,7.422-1.407c0.515-0.083,0.993,0.267,1.074,0.778
				c0.081,0.512-0.266,0.993-0.778,1.074c-2.478,0.396-4.94,0.862-7.315,1.386C316.106,157.149,316.027,157.156,315.95,157.153z
				 M303.009,161.596c-0.414,0.056-0.829-0.17-0.994-0.574c-0.196-0.479,0.034-1.027,0.513-1.223
				c2.285-0.935,4.665-1.826,7.074-2.65c0.494-0.169,1.024,0.094,1.191,0.583c0.167,0.491-0.094,1.024-0.583,1.191
				c-2.375,0.812-4.721,1.69-6.972,2.611C303.162,161.565,303.085,161.586,303.009,161.596z M378.073,156.794
				c-0.048-0.002-0.097-0.006-0.146-0.016c-2.398-0.462-4.875-0.877-7.36-1.233c-0.512-0.073-0.868-0.549-0.795-1.061
				c0.072-0.512,0.564-0.878,1.061-0.795c2.514,0.359,5.02,0.779,7.45,1.247c0.509,0.098,0.841,0.59,0.743,1.099
				C378.938,156.494,378.527,156.81,378.073,156.794z M329.511,154.908c-0.456-0.016-0.843-0.364-0.896-0.83
				c-0.059-0.516,0.31-0.98,0.824-1.038c2.465-0.283,4.994-0.509,7.518-0.674c0.504-0.028,0.964,0.36,0.997,0.876
				c0.034,0.516-0.358,0.963-0.876,0.997c-2.492,0.162-4.991,0.385-7.424,0.664C329.605,154.909,329.557,154.91,329.511,154.908z
				 M364.46,154.79c-0.022-0.001-0.044-0.002-0.064-0.004c-2.462-0.256-4.965-0.458-7.438-0.602
				c-0.517-0.029-0.912-0.474-0.882-0.991c0.029-0.51,0.461-0.901,0.97-0.883c0.007,0,0.014,0.001,0.02,0.001
				c2.501,0.144,5.033,0.349,7.522,0.607c0.516,0.054,0.89,0.516,0.837,1.03C365.374,154.443,364.949,154.808,364.46,154.79z
				 M343.229,153.958c-0.491-0.018-0.889-0.414-0.903-0.913c-0.013-0.518,0.396-0.949,0.914-0.961
				c2.488-0.064,5.028-0.07,7.546-0.017c0.004,0,0.009,0,0.014,0.001c0.512,0.018,0.914,0.444,0.904,0.957
				c-0.01,0.517-0.439,0.928-0.958,0.917c-2.488-0.051-4.999-0.046-7.458,0.018C343.268,153.96,343.249,153.959,343.229,153.958z"/>
		</g>
	</g>
</g>
</svg>
